<svg width="162" height="23" viewBox="0 0 162 23" fill="none" xmlns="http://www.w3.org/2000/svg">
<path d="M0 1.36996H6.26705L11.5833 14.3335H11.8287L17.1449 1.36996H23.412V22.3078H18.4842V9.44659H18.3104L13.2804 22.1749H10.1316L5.10157 9.37502H4.92776V22.3078H0V1.36996Z" fill="white"/>
<path d="M26.5685 22.3078V6.60443H31.5679V22.3078H26.5685ZM29.0733 4.77441C28.3713 4.77441 27.7681 4.54268 27.2637 4.07921C26.7594 3.60892 26.5072 3.04322 26.5072 2.38209C26.5072 1.72778 26.7594 1.1689 27.2637 0.705428C27.7681 0.235143 28.3713 0 29.0733 0C29.7821 0 30.3853 0.235143 30.8829 0.705428C31.3872 1.1689 31.6394 1.72778 31.6394 2.38209C31.6394 3.04322 31.3872 3.60892 30.8829 4.07921C30.3853 4.54268 29.7821 4.77441 29.0733 4.77441Z" fill="white"/>
<path d="M48.4598 11.3993L43.8694 11.522C43.8217 11.1948 43.6922 10.9052 43.4809 10.653C43.2696 10.394 42.9936 10.1929 42.6528 10.0498C42.3188 9.89983 41.9303 9.82486 41.4873 9.82486C40.9079 9.82486 40.4138 9.94073 40.0049 10.1725C39.6027 10.4042 39.4051 10.7177 39.4119 11.113C39.4051 11.4197 39.5278 11.6856 39.7799 11.9105C40.0389 12.1354 40.499 12.316 41.1601 12.4523L44.1863 13.0248C45.7539 13.3247 46.9194 13.8223 47.6828 14.5175C48.4529 15.2127 48.8414 16.1328 48.8483 17.2778C48.8414 18.3547 48.5211 19.2919 47.8872 20.0893C47.2602 20.8868 46.4014 21.507 45.3109 21.95C44.2204 22.3862 42.9731 22.6043 41.5691 22.6043C39.3267 22.6043 37.558 22.1443 36.263 21.2241C34.9749 20.2972 34.2388 19.0568 34.0547 17.5028L38.9927 17.3801C39.1018 17.9526 39.3846 18.3888 39.8413 18.6887C40.2979 18.9886 40.8807 19.1385 41.5895 19.1385C42.2302 19.1385 42.7516 19.0193 43.1537 18.7807C43.5559 18.5422 43.7603 18.2252 43.7671 17.8299C43.7603 17.4755 43.6036 17.1927 43.2969 16.9814C42.9901 16.7633 42.5096 16.5929 41.8553 16.4702L39.1154 15.9488C37.541 15.6625 36.3687 15.1343 35.5985 14.3641C34.8283 13.5871 34.4466 12.5989 34.4535 11.3993C34.4466 10.3497 34.7261 9.4534 35.2918 8.71049C35.8575 7.96076 36.6618 7.38824 37.7046 6.99293C38.7474 6.59762 39.9776 6.39996 41.3953 6.39996C43.5218 6.39996 45.1984 6.84639 46.4253 7.73925C47.6521 8.62529 48.3303 9.84531 48.4598 11.3993Z" fill="white"/>
<path d="M65.0194 11.3993L60.429 11.522C60.3813 11.1948 60.2518 10.9052 60.0405 10.653C59.8292 10.394 59.5532 10.1929 59.2124 10.0498C58.8784 9.89983 58.4899 9.82486 58.0469 9.82486C57.4676 9.82486 56.9734 9.94073 56.5645 10.1725C56.1624 10.4042 55.9647 10.7177 55.9715 11.113C55.9647 11.4197 56.0874 11.6856 56.3396 11.9105C56.5986 12.1354 57.0586 12.316 57.7198 12.4523L60.7459 13.0248C62.3136 13.3247 63.479 13.8223 64.2424 14.5175C65.0126 15.2127 65.4011 16.1328 65.4079 17.2778C65.4011 18.3547 65.0807 19.2919 64.4469 20.0893C63.8198 20.8868 62.9611 21.507 61.8705 21.95C60.78 22.3862 59.5327 22.6043 58.1287 22.6043C55.8863 22.6043 54.1177 22.1443 52.8227 21.2241C51.5345 20.2972 50.7984 19.0568 50.6144 17.5028L55.5524 17.3801C55.6614 17.9526 55.9443 18.3888 56.4009 18.6887C56.8576 18.9886 57.4403 19.1385 58.1492 19.1385C58.7898 19.1385 59.3112 19.0193 59.7134 18.7807C60.1155 18.5422 60.32 18.2252 60.3268 17.8299C60.32 17.4755 60.1632 17.1927 59.8565 16.9814C59.5498 16.7633 59.0693 16.5929 58.415 16.4702L55.6751 15.9488C54.1006 15.6625 52.9283 15.1343 52.1581 14.3641C51.388 13.5871 51.0063 12.5989 51.0131 11.3993C51.0063 10.3497 51.2857 9.4534 51.8514 8.71049C52.4171 7.96076 53.2214 7.38824 54.2642 6.99293C55.307 6.59762 56.5372 6.39996 57.9549 6.39996C60.0814 6.39996 61.7581 6.84639 62.9849 7.73925C64.2117 8.62529 64.8899 9.84531 65.0194 11.3993Z" fill="white"/>
<path d="M67.8692 22.3078V6.60443H72.8686V22.3078H67.8692ZM70.374 4.77441C69.672 4.77441 69.0688 4.54268 68.5644 4.07921C68.0601 3.60892 67.8079 3.04322 67.8079 2.38209C67.8079 1.72778 68.0601 1.1689 68.5644 0.705428C69.0688 0.235143 69.672 0 70.374 0C71.0828 0 71.686 0.235143 72.1836 0.705428C72.6879 1.1689 72.9401 1.72778 72.9401 2.38209C72.9401 3.04322 72.6879 3.60892 72.1836 4.07921C71.686 4.54268 71.0828 4.77441 70.374 4.77441Z" fill="white"/>
<path d="M83.3809 22.6043C81.7315 22.6043 80.3139 22.267 79.1279 21.5922C77.9488 20.9106 77.0389 19.9632 76.3982 18.75C75.7644 17.53 75.4474 16.1158 75.4474 14.5073C75.4474 12.8919 75.7644 11.4777 76.3982 10.2645C77.0389 9.04446 77.9488 8.09707 79.1279 7.42232C80.3139 6.74075 81.7315 6.39996 83.3809 6.39996C85.0303 6.39996 86.4446 6.74075 87.6237 7.42232C88.8097 8.09707 89.7196 9.04446 90.3534 10.2645C90.9941 11.4777 91.3144 12.8919 91.3144 14.5073C91.3144 16.1158 90.9941 17.53 90.3534 18.75C89.7196 19.9632 88.8097 20.9106 87.6237 21.5922C86.4446 22.267 85.0303 22.6043 83.3809 22.6043ZM83.4116 18.8318C84.0114 18.8318 84.5192 18.6478 84.9349 18.2798C85.3507 17.9117 85.6676 17.4005 85.8857 16.7462C86.1106 16.0919 86.2231 15.3354 86.2231 14.4766C86.2231 13.6042 86.1106 12.8408 85.8857 12.1865C85.6676 11.5322 85.3507 11.021 84.9349 10.653C84.5192 10.2849 84.0114 10.1009 83.4116 10.1009C82.7914 10.1009 82.2666 10.2849 81.8372 10.653C81.4146 11.021 81.0909 11.5322 80.8659 12.1865C80.6478 12.8408 80.5388 13.6042 80.5388 14.4766C80.5388 15.3354 80.6478 16.0919 80.8659 16.7462C81.0909 17.4005 81.4146 17.9117 81.8372 18.2798C82.2666 18.6478 82.7914 18.8318 83.4116 18.8318Z" fill="white"/>
<path d="M98.8748 13.352V22.3078H93.8754V6.60443H98.6294V9.48748H98.8032C99.1508 8.52647 99.7438 7.77333 100.582 7.22807C101.42 6.676 102.419 6.39996 103.578 6.39996C104.682 6.39996 105.639 6.64873 106.45 7.14628C107.268 7.63701 107.902 8.3254 108.352 9.21144C108.809 10.0907 109.034 11.1198 109.027 12.299V22.3078H104.027V13.2804C104.034 12.408 103.813 11.7264 103.363 11.2357C102.92 10.745 102.303 10.4996 101.512 10.4996C100.988 10.4996 100.524 10.6155 100.122 10.8472C99.7267 11.0721 99.42 11.3959 99.2019 11.8185C98.9907 12.241 98.8816 12.7522 98.8748 13.352Z" fill="white"/>
<path d="M123.368 1.36996V22.3078H118.307V1.36996H123.368Z" fill="white"/>
<path d="M137.862 7.64724C137.794 6.89751 137.491 6.31476 136.952 5.89901C136.421 5.47643 135.661 5.26514 134.673 5.26514C134.018 5.26514 133.473 5.35034 133.037 5.52073C132.601 5.69113 132.273 5.92627 132.055 6.22616C131.837 6.51924 131.725 6.85661 131.718 7.23829C131.704 7.55182 131.766 7.82785 131.902 8.0664C132.045 8.30495 132.25 8.51624 132.515 8.70027C132.788 8.87747 133.115 9.03424 133.497 9.17055C133.879 9.30687 134.308 9.42614 134.785 9.52838L136.584 9.93732C137.62 10.1622 138.534 10.4621 139.324 10.837C140.122 11.2119 140.79 11.6583 141.328 12.1763C141.873 12.6943 142.286 13.2907 142.565 13.9654C142.845 14.6402 142.988 15.3967 142.995 16.235C142.988 17.5573 142.654 18.6921 141.993 19.6395C141.332 20.5869 140.381 21.3128 139.14 21.8171C137.907 22.3215 136.417 22.5737 134.673 22.5737C132.921 22.5737 131.394 22.3113 130.092 21.7864C128.791 21.2616 127.779 20.4642 127.056 19.3941C126.334 18.3241 125.962 16.9711 125.942 15.3354H130.788C130.829 16.0101 131.009 16.5724 131.33 17.0223C131.65 17.4721 132.089 17.8129 132.648 18.0446C133.214 18.2764 133.868 18.3922 134.611 18.3922C135.293 18.3922 135.872 18.3002 136.349 18.1162C136.833 17.9322 137.205 17.6766 137.464 17.3494C137.723 17.0223 137.856 16.6474 137.862 16.2248C137.856 15.8295 137.733 15.4921 137.494 15.2127C137.256 14.9264 136.888 14.6811 136.39 14.4766C135.899 14.2653 135.272 14.0711 134.509 13.8938L132.321 13.3827C130.508 12.9669 129.08 12.2956 128.038 11.3686C126.995 10.4349 126.477 9.17396 126.484 7.5859C126.477 6.29091 126.824 5.15609 127.526 4.18144C128.228 3.2068 129.2 2.44684 130.44 1.90159C131.681 1.35633 133.095 1.0837 134.683 1.0837C136.305 1.0837 137.712 1.35974 138.905 1.91181C140.105 2.45707 141.035 3.22384 141.696 4.21212C142.357 5.20039 142.695 6.34543 142.708 7.64724H137.862Z" fill="white"/>
<path d="M156.868 7.64724C156.8 6.89751 156.497 6.31476 155.958 5.89901C155.426 5.47643 154.667 5.26514 153.678 5.26514C153.024 5.26514 152.479 5.35034 152.043 5.52073C151.606 5.69113 151.279 5.92627 151.061 6.22616C150.843 6.51924 150.73 6.85661 150.724 7.23829C150.71 7.55182 150.771 7.82785 150.908 8.0664C151.051 8.30495 151.255 8.51624 151.521 8.70027C151.794 8.87747 152.121 9.03424 152.503 9.17055C152.884 9.30687 153.314 9.42614 153.791 9.52838L155.59 9.93732C156.626 10.1622 157.539 10.4621 158.33 10.837C159.127 11.2119 159.795 11.6583 160.334 12.1763C160.879 12.6943 161.291 13.2907 161.571 13.9654C161.85 14.6402 161.993 15.3967 162 16.235C161.993 17.5573 161.659 18.6921 160.998 19.6395C160.337 20.5869 159.386 21.3128 158.146 21.8171C156.912 22.3215 155.423 22.5737 153.678 22.5737C151.927 22.5737 150.4 22.3113 149.098 21.7864C147.796 21.2616 146.784 20.4642 146.062 19.3941C145.339 18.3241 144.968 16.9711 144.947 15.3354H149.793C149.834 16.0101 150.015 16.5724 150.335 17.0223C150.656 17.4721 151.095 17.8129 151.654 18.0446C152.22 18.2764 152.874 18.3922 153.617 18.3922C154.299 18.3922 154.878 18.3002 155.355 18.1162C155.839 17.9322 156.21 17.6766 156.469 17.3494C156.728 17.0223 156.861 16.6474 156.868 16.2248C156.861 15.8295 156.739 15.4921 156.5 15.2127C156.261 14.9264 155.893 14.6811 155.396 14.4766C154.905 14.2653 154.278 14.0711 153.515 13.8938L151.327 13.3827C149.514 12.9669 148.086 12.2956 147.043 11.3686C146 10.4349 145.482 9.17396 145.489 7.5859C145.482 6.29091 145.83 5.15609 146.532 4.18144C147.234 3.2068 148.205 2.44684 149.446 1.90159C150.686 1.35633 152.1 1.0837 153.688 1.0837C155.311 1.0837 156.718 1.35974 157.911 1.91181C159.11 2.45707 160.041 3.22384 160.702 4.21212C161.363 5.20039 161.7 6.34543 161.714 7.64724H156.868Z" fill="white"/>
</svg>
