<svg width="132" height="27" viewBox="0 0 132 27" fill="none" xmlns="http://www.w3.org/2000/svg">
<path d="M0 20.9791V0H8.74813C10.3188 0 11.6334 0.221947 12.692 0.665841C13.7573 1.10973 14.5563 1.73119 15.089 2.5302C15.6285 3.32921 15.8982 4.25456 15.8982 5.30624C15.8982 6.10525 15.7309 6.8189 15.3963 7.44718C15.0617 8.06863 14.6007 8.58423 14.0134 8.99398C13.4261 9.40373 12.7466 9.69055 11.9749 9.85445V10.0593C12.8217 10.1003 13.6036 10.3291 14.3207 10.7457C15.0446 11.1622 15.6251 11.7427 16.0621 12.4871C16.4992 13.2246 16.7177 14.0988 16.7177 15.1095C16.7177 16.2363 16.4309 17.2436 15.8573 18.1314C15.2836 19.0123 14.4539 19.7089 13.368 20.2211C12.2822 20.7264 10.9642 20.9791 9.41397 20.9791H0ZM5.07064 16.8919H8.20521C9.3047 16.8919 10.114 16.6836 10.633 16.267C11.1588 15.8504 11.4217 15.27 11.4217 14.5256C11.4217 13.9861 11.2954 13.5217 11.0427 13.1324C10.79 12.7363 10.4315 12.4325 9.96713 12.2207C9.50275 12.0022 8.94617 11.8929 8.29741 11.8929H5.07064V16.8919ZM5.07064 8.62521H7.87741C8.43057 8.62521 8.92227 8.53301 9.35251 8.34863C9.78274 8.16424 10.1174 7.8979 10.3564 7.54962C10.6022 7.20133 10.7252 6.78134 10.7252 6.28964C10.7252 5.58624 10.4759 5.03308 9.97737 4.63016C9.47885 4.22724 8.80618 4.02578 7.95936 4.02578H5.07064V8.62521Z" fill="white"/>
<path d="M26.5005 21.2762C24.8478 21.2762 23.4274 20.9381 22.2391 20.2621C21.0577 19.5791 20.146 18.6299 19.504 17.4143C18.8689 16.1919 18.5514 14.7748 18.5514 13.1632C18.5514 11.5447 18.8689 10.1276 19.504 8.91203C20.146 7.68961 21.0577 6.74036 22.2391 6.06428C23.4274 5.38136 24.8478 5.03991 26.5005 5.03991C28.1531 5.03991 29.5702 5.38136 30.7516 6.06428C31.9399 6.74036 32.8516 7.68961 33.4867 8.91203C34.1286 10.1276 34.4496 11.5447 34.4496 13.1632C34.4496 14.7748 34.1286 16.1919 33.4867 17.4143C32.8516 18.6299 31.9399 19.5791 30.7516 20.2621C29.5702 20.9381 28.1531 21.2762 26.5005 21.2762ZM26.5312 17.4963C27.1322 17.4963 27.6409 17.3119 28.0575 16.9431C28.4741 16.5743 28.7917 16.0621 29.0102 15.4065C29.2355 14.7509 29.3482 13.9929 29.3482 13.1324C29.3482 12.2583 29.2355 11.4934 29.0102 10.8378C28.7917 10.1822 28.4741 9.67006 28.0575 9.30129C27.6409 8.93252 27.1322 8.74813 26.5312 8.74813C25.9098 8.74813 25.3839 8.93252 24.9537 9.30129C24.5303 9.67006 24.2059 10.1822 23.9805 10.8378C23.762 11.4934 23.6527 12.2583 23.6527 13.1324C23.6527 13.9929 23.762 14.7509 23.9805 15.4065C24.2059 16.0621 24.5303 16.5743 24.9537 16.9431C25.3839 17.3119 25.9098 17.4963 26.5312 17.4963Z" fill="white"/>
<path d="M42.7624 21.2045C41.6014 21.2045 40.5463 20.904 39.5971 20.303C38.6478 19.7021 37.8898 18.8006 37.323 17.5987C36.7561 16.3968 36.4727 14.9046 36.4727 13.1222C36.4727 11.2715 36.7664 9.7486 37.3537 8.5535C37.941 7.3584 38.7093 6.47403 39.6585 5.90038C40.6146 5.32673 41.6424 5.03991 42.7419 5.03991C43.5682 5.03991 44.275 5.18332 44.8623 5.47014C45.4496 5.75014 45.9345 6.11208 46.3169 6.55598C46.6994 6.99987 46.9896 7.46084 47.1877 7.93888H47.2901V0H52.2993V20.9791H47.3413V18.4284H47.1877C46.976 18.9133 46.6755 19.3674 46.2862 19.7909C45.8969 20.2143 45.4087 20.5557 44.8214 20.8152C44.2409 21.0747 43.5546 21.2045 42.7624 21.2045ZM44.5038 17.3016C45.1116 17.3016 45.6306 17.1309 46.0608 16.7894C46.4911 16.4412 46.8223 15.9529 47.0545 15.3246C47.2867 14.6963 47.4028 13.9588 47.4028 13.1119C47.4028 12.2515 47.2867 11.5105 47.0545 10.8891C46.8291 10.2676 46.4979 9.78957 46.0608 9.45495C45.6306 9.12032 45.1116 8.953 44.5038 8.953C43.8823 8.953 43.3565 9.12373 42.9263 9.46519C42.496 9.80665 42.1682 10.2881 41.9429 10.9096C41.7243 11.531 41.6151 12.2651 41.6151 13.1119C41.6151 13.9588 41.7278 14.6963 41.9531 15.3246C42.1785 15.9529 42.5029 16.4412 42.9263 16.7894C43.3565 17.1309 43.8823 17.3016 44.5038 17.3016Z" fill="white"/>
<path d="M58.53 26.8795C57.929 26.8795 57.3622 26.8317 56.8296 26.7361C56.2969 26.6473 55.8393 26.5278 55.4569 26.3776L56.5632 22.741C57.0549 22.9049 57.4988 23.0005 57.8949 23.0279C58.2978 23.0552 58.6427 22.9903 58.9295 22.8332C59.2232 22.683 59.4485 22.4132 59.6056 22.024L59.8002 21.5528L54.2072 5.24478H59.4519L62.3509 16.4719H62.5148L65.4548 5.24478H70.7303L64.7992 22.4849C64.5123 23.3454 64.106 24.1035 63.5802 24.759C63.0611 25.4215 62.3885 25.9405 61.5621 26.3161C60.7426 26.6917 59.7319 26.8795 58.53 26.8795Z" fill="white"/>
<path d="M72.651 0H78.9304L84.2571 12.989H84.5029L89.8297 0H96.1091V20.9791H91.1716V8.09253H90.9974L85.9575 20.846H82.8025L77.7626 8.02083H77.5884V20.9791H72.651V0Z" fill="white"/>
<path d="M103.707 21.2455C102.703 21.2455 101.812 21.0781 101.034 20.7435C100.262 20.4021 99.6508 19.8899 99.2001 19.207C98.7562 18.5172 98.5343 17.6533 98.5343 16.6153C98.5343 15.7412 98.6879 15.0036 98.9952 14.4027C99.3025 13.8017 99.7259 13.3134 100.265 12.9378C100.805 12.5622 101.426 12.2788 102.13 12.0876C102.833 11.8895 103.584 11.7564 104.383 11.6881C105.278 11.6061 105.999 11.5208 106.545 11.432C107.091 11.3364 107.487 11.2032 107.733 11.0325C107.986 10.8549 108.112 10.6057 108.112 10.2847V10.2335C108.112 9.70762 107.931 9.30129 107.569 9.01447C107.207 8.72764 106.719 8.58423 106.104 8.58423C105.442 8.58423 104.909 8.72764 104.506 9.01447C104.103 9.30129 103.847 9.69738 103.738 10.2027L99.1181 10.0388C99.2547 9.08276 99.6064 8.22912 100.173 7.47791C100.747 6.71988 101.532 6.12574 102.529 5.6955C103.533 5.25844 104.739 5.03991 106.145 5.03991C107.149 5.03991 108.075 5.15942 108.921 5.39844C109.768 5.63063 110.506 5.97208 111.134 6.42281C111.762 6.8667 112.247 7.41303 112.589 8.0618C112.937 8.71057 113.111 9.45153 113.111 10.2847V20.9791H108.399V18.787H108.276C107.996 19.3196 107.637 19.7704 107.2 20.1391C106.77 20.5079 106.261 20.7845 105.674 20.9689C105.094 21.1533 104.438 21.2455 103.707 21.2455ZM105.254 17.9675C105.794 17.9675 106.279 17.8582 106.709 17.6397C107.146 17.4211 107.494 17.1207 107.754 16.7382C108.013 16.349 108.143 15.8982 108.143 15.3861V13.8905C107.999 13.9656 107.825 14.0339 107.62 14.0953C107.422 14.1568 107.204 14.2149 106.965 14.2695C106.726 14.3241 106.48 14.3719 106.227 14.4129C105.975 14.4539 105.732 14.4914 105.5 14.5256C105.029 14.6007 104.626 14.7168 104.291 14.8739C103.963 15.0309 103.711 15.2358 103.533 15.4885C103.362 15.7343 103.277 16.028 103.277 16.3695C103.277 16.8885 103.461 17.2846 103.83 17.5577C104.206 17.8309 104.68 17.9675 105.254 17.9675Z" fill="white"/>
<path d="M116.174 26.8795V5.24478H121.132V7.93888H121.286C121.49 7.46084 121.781 6.99987 122.156 6.55598C122.539 6.11208 123.024 5.75014 123.611 5.47014C124.205 5.18332 124.915 5.03991 125.742 5.03991C126.834 5.03991 127.855 5.32673 128.804 5.90038C129.761 6.47403 130.532 7.3584 131.119 8.5535C131.707 9.7486 132 11.2715 132 13.1222C132 14.9046 131.717 16.3968 131.15 17.5987C130.59 18.8006 129.832 19.7021 128.876 20.303C127.927 20.904 126.872 21.2045 125.711 21.2045C124.919 21.2045 124.232 21.0747 123.652 20.8152C123.071 20.5557 122.583 20.2143 122.187 19.7909C121.798 19.3674 121.497 18.9133 121.286 18.4284H121.183V26.8795H116.174ZM121.081 13.1119C121.081 13.9588 121.193 14.6963 121.419 15.3246C121.651 15.9529 121.982 16.4412 122.412 16.7894C122.849 17.1309 123.372 17.3016 123.98 17.3016C124.594 17.3016 125.117 17.1309 125.547 16.7894C125.977 16.4412 126.302 15.9529 126.52 15.3246C126.745 14.6963 126.858 13.9588 126.858 13.1119C126.858 12.2651 126.745 11.531 126.52 10.9096C126.302 10.2881 125.977 9.80665 125.547 9.46519C125.124 9.12373 124.601 8.953 123.98 8.953C123.365 8.953 122.843 9.12032 122.412 9.45495C121.982 9.78957 121.651 10.2676 121.419 10.8891C121.193 11.5105 121.081 12.2515 121.081 13.1119Z" fill="white"/>
</svg>
