<svg width="175" height="23" viewBox="0 0 175 23" fill="none" xmlns="http://www.w3.org/2000/svg">
<path d="M0 22.2559V1.36677H8.62902C10.193 1.36677 11.5428 1.67277 12.6783 2.28475C13.8207 2.88994 14.7013 3.73652 15.3201 4.8245C15.9389 5.90568 16.2483 7.16365 16.2483 8.59842C16.2483 10.04 15.9321 11.3014 15.2997 12.3825C14.6741 13.4569 13.7799 14.2899 12.6171 14.8815C11.4544 15.4731 10.074 15.7689 8.47602 15.7689H3.15173V11.791H7.53764C8.29922 11.791 8.93501 11.6584 9.445 11.3932C9.96179 11.128 10.3528 10.7574 10.618 10.2814C10.8832 9.79859 11.0158 9.2376 11.0158 8.59842C11.0158 7.95243 10.8832 7.39484 10.618 6.92565C10.3528 6.44966 9.96179 6.08247 9.445 5.82408C8.92821 5.56568 8.29243 5.43649 7.53764 5.43649H5.04889V22.2559H0Z" fill="white"/>
<path d="M18.737 22.2559V6.58906H23.5819V9.445H23.7451C24.0307 8.41142 24.4965 7.64304 25.1425 7.13985C25.7885 6.62986 26.5398 6.37487 27.3966 6.37487C27.6278 6.37487 27.8658 6.39187 28.1106 6.42586C28.3554 6.45306 28.5832 6.49726 28.794 6.55846V10.8934C28.556 10.8118 28.2432 10.7472 27.8556 10.6996C27.4748 10.652 27.1348 10.6282 26.8356 10.6282C26.244 10.6282 25.7103 10.7608 25.2343 11.026C24.7651 11.2844 24.3945 11.6482 24.1225 12.1173C23.8573 12.5797 23.7247 13.1237 23.7247 13.7493V22.2559H18.737Z" fill="white"/>
<path d="M30.8263 22.2559V6.58906H35.814V22.2559H30.8263ZM33.3252 4.7633C32.6249 4.7633 32.0231 4.53211 31.5199 4.06971C31.0167 3.60052 30.7651 3.03614 30.7651 2.37655C30.7651 1.72376 31.0167 1.16618 31.5199 0.703786C32.0231 0.234595 32.6249 0 33.3252 0C34.0324 0 34.6342 0.234595 35.1306 0.703786C35.6338 1.16618 35.8854 1.72376 35.8854 2.37655C35.8854 3.03614 35.6338 3.60052 35.1306 4.06971C34.6342 4.53211 34.0324 4.7633 33.3252 4.7633Z" fill="white"/>
<path d="M52.6666 11.3728L48.0869 11.4952C48.0393 11.1688 47.9101 10.8798 47.6993 10.6282C47.4885 10.3698 47.2131 10.1692 46.8731 10.0264C46.5399 9.87679 46.1523 9.80199 45.7103 9.80199C45.1323 9.80199 44.6394 9.91759 44.2314 10.1488C43.8302 10.38 43.633 10.6928 43.6398 11.0872C43.633 11.3932 43.7554 11.6584 44.007 11.8827C44.2654 12.1071 44.7244 12.2873 45.3839 12.4233L48.4031 12.9945C49.967 13.2937 51.1298 13.7901 51.8914 14.4837C52.6598 15.1773 53.0474 16.0953 53.0542 17.2376C53.0474 18.312 52.7278 19.247 52.0954 20.0426C51.4698 20.8382 50.613 21.4569 49.5251 21.8989C48.4371 22.3341 47.1927 22.5517 45.7919 22.5517C43.5548 22.5517 41.7902 22.0927 40.4982 21.1748C39.2131 20.25 38.4787 19.0124 38.2951 17.462L43.2216 17.3396C43.3304 17.9108 43.6126 18.346 44.0682 18.6452C44.5238 18.9444 45.1051 19.094 45.8123 19.094C46.4515 19.094 46.9717 18.975 47.3729 18.737C47.7741 18.499 47.9781 18.1828 47.9849 17.7884C47.9781 17.4348 47.8217 17.1526 47.5157 16.9418C47.2097 16.7242 46.7303 16.5542 46.0775 16.4319L43.344 15.9117C41.7732 15.6261 40.6036 15.0991 39.8353 14.3307C39.0669 13.5555 38.6861 12.5695 38.6929 11.3728C38.6861 10.3256 38.9649 9.4314 39.5293 8.69022C40.0937 7.94223 40.896 7.37104 41.9364 6.97665C42.9768 6.58226 44.2042 6.38507 45.6185 6.38507C47.7401 6.38507 49.4129 6.83046 50.6368 7.72124C51.8608 8.60522 52.5374 9.82239 52.6666 11.3728Z" fill="white"/>
<path d="M55.5098 22.2559V6.58906H60.2527V9.4654H60.4261C60.7525 8.51342 61.3033 7.76204 62.0784 7.21125C62.8536 6.66046 63.7784 6.38507 64.8528 6.38507C65.9408 6.38507 66.8723 6.66386 67.6475 7.22145C68.4227 7.77904 68.9157 8.52702 69.1265 9.4654H69.2897C69.5821 8.53382 70.1533 7.78924 71.0033 7.23165C71.8532 6.66726 72.8562 6.38507 74.0122 6.38507C75.4946 6.38507 76.6981 6.86105 77.6229 7.81303C78.5477 8.75821 79.0101 10.057 79.0101 11.7094V22.2559H74.0224V12.8517C74.0224 12.0697 73.8218 11.4748 73.4206 11.0668C73.0194 10.652 72.4992 10.4446 71.86 10.4446C71.1732 10.4446 70.6327 10.669 70.2383 11.1178C69.8507 11.5598 69.6569 12.1547 69.6569 12.9027V22.2559H64.863V12.8007C64.863 12.0731 64.6658 11.4986 64.2714 11.077C63.877 10.6554 63.3568 10.4446 62.7108 10.4446C62.2756 10.4446 61.8914 10.55 61.5583 10.7608C61.2251 10.9648 60.9633 11.2572 60.7729 11.638C60.5893 12.0187 60.4975 12.4675 60.4975 12.9843V22.2559H55.5098Z" fill="white"/>
<path d="M95.7785 11.3728L91.1988 11.4952C91.1512 11.1688 91.022 10.8798 90.8112 10.6282C90.6004 10.3698 90.325 10.1692 89.985 10.0264C89.6519 9.87679 89.2643 9.80199 88.8223 9.80199C88.2443 9.80199 87.7513 9.91759 87.3433 10.1488C86.9421 10.38 86.7449 10.6928 86.7517 11.0872C86.7449 11.3932 86.8673 11.6584 87.1189 11.8827C87.3773 12.1071 87.8363 12.2873 88.4959 12.4233L91.515 12.9945C93.079 13.2937 94.2418 13.7901 95.0033 14.4837C95.7717 15.1773 96.1593 16.0953 96.1661 17.2376C96.1593 18.312 95.8397 19.247 95.2073 20.0426C94.5818 20.8382 93.725 21.4569 92.637 21.8989C91.549 22.3341 90.3046 22.5517 88.9039 22.5517C86.6667 22.5517 84.9022 22.0927 83.6102 21.1748C82.325 20.25 81.5906 19.0124 81.407 17.462L86.3335 17.3396C86.4423 17.9108 86.7245 18.346 87.1801 18.6452C87.6357 18.9444 88.2171 19.094 88.9243 19.094C89.5635 19.094 90.0836 18.975 90.4848 18.737C90.886 18.499 91.09 18.1828 91.0968 17.7884C91.09 17.4348 90.9336 17.1526 90.6276 16.9418C90.3216 16.7242 89.8423 16.5542 89.1895 16.4319L86.4559 15.9117C84.8852 15.6261 83.7156 15.0991 82.9472 14.3307C82.1788 13.5555 81.798 12.5695 81.8048 11.3728C81.798 10.3256 82.0768 9.4314 82.6412 8.69022C83.2056 7.94223 84.008 7.37104 85.0484 6.97665C86.0887 6.58226 87.3161 6.38507 88.7305 6.38507C90.852 6.38507 92.5248 6.83046 93.7488 7.72124C94.9728 8.60522 95.6493 9.82239 95.7785 11.3728Z" fill="white"/>
<path d="M104.793 1.36677H111.045L116.349 14.3001H116.594L121.898 1.36677H128.15V22.2559H123.234V9.4246H123.06L118.042 22.1233H114.901L109.882 9.3532H109.709V22.2559H104.793V1.36677Z" fill="white"/>
<path d="M135.716 22.5211C134.716 22.5211 133.829 22.3545 133.054 22.0213C132.285 21.6813 131.677 21.1714 131.228 20.4914C130.786 19.8046 130.565 18.9444 130.565 17.9108C130.565 17.0404 130.718 16.3061 131.024 15.7077C131.33 15.1093 131.751 14.6231 132.289 14.2491C132.826 13.8751 133.445 13.5929 134.145 13.4025C134.845 13.2053 135.593 13.0727 136.389 13.0047C137.28 12.9231 137.997 12.8381 138.541 12.7497C139.085 12.6545 139.48 12.5219 139.724 12.3519C139.976 12.1751 140.102 11.9269 140.102 11.6074V11.5564C140.102 11.0328 139.921 10.6282 139.561 10.3426C139.201 10.057 138.715 9.91419 138.103 9.91419C137.443 9.91419 136.913 10.057 136.511 10.3426C136.11 10.6282 135.855 11.0226 135.746 11.5258L131.146 11.3626C131.282 10.4106 131.632 9.5606 132.197 8.81261C132.768 8.05783 133.55 7.46624 134.543 7.03785C135.542 6.60266 136.743 6.38507 138.143 6.38507C139.143 6.38507 140.064 6.50406 140.907 6.74206C141.751 6.97325 142.485 7.31325 143.111 7.76204C143.736 8.20403 144.219 8.74801 144.559 9.394C144.906 10.04 145.079 10.7778 145.079 11.6074V22.2559H140.387V20.0732H140.265C139.986 20.6036 139.629 21.0524 139.194 21.4195C138.766 21.7867 138.259 22.0621 137.674 22.2457C137.096 22.4293 136.443 22.5211 135.716 22.5211ZM137.256 19.2572C137.793 19.2572 138.276 19.1484 138.704 18.9308C139.14 18.7132 139.486 18.414 139.745 18.0332C140.003 17.6456 140.132 17.1968 140.132 16.6868V15.1977C139.99 15.2725 139.816 15.3405 139.612 15.4017C139.415 15.4629 139.197 15.5207 138.959 15.5751C138.721 15.6295 138.477 15.6771 138.225 15.7179C137.973 15.7587 137.732 15.7961 137.501 15.8301C137.032 15.9049 136.63 16.0205 136.297 16.1769C135.971 16.3333 135.719 16.5372 135.542 16.7888C135.372 17.0336 135.287 17.326 135.287 17.666C135.287 18.1828 135.471 18.5772 135.838 18.8492C136.212 19.1212 136.685 19.2572 137.256 19.2572Z" fill="white"/>
<path d="M156.972 6.58906V10.261H147.089V6.58906H156.972ZM149.159 2.83554H154.147V17.3294C154.147 17.6354 154.194 17.8836 154.29 18.074C154.392 18.2576 154.538 18.3902 154.728 18.4718C154.919 18.5466 155.146 18.584 155.412 18.584C155.602 18.584 155.803 18.567 156.013 18.533C156.231 18.4922 156.394 18.4582 156.503 18.431L157.258 22.0315C157.02 22.0995 156.683 22.1845 156.248 22.2865C155.82 22.3885 155.306 22.4531 154.708 22.4803C153.538 22.5347 152.535 22.3987 151.699 22.0723C150.869 21.7391 150.233 21.2224 149.791 20.522C149.356 19.8216 149.146 18.941 149.159 17.8802V2.83554Z" fill="white"/>
<path d="M164.841 13.3209V22.2559H159.854V1.36677H164.678V9.4654H164.851C165.205 8.49982 165.783 7.74504 166.585 7.20105C167.395 6.65706 168.384 6.38507 169.554 6.38507C170.655 6.38507 171.614 6.62986 172.43 7.11945C173.246 7.60224 173.878 8.28562 174.327 9.16961C174.783 10.0536 175.007 11.0872 175 12.2703V22.2559H170.013V13.2495C170.019 12.3791 169.802 11.6992 169.36 11.2096C168.918 10.72 168.296 10.4752 167.493 10.4752C166.97 10.4752 166.507 10.5908 166.106 10.822C165.712 11.0464 165.402 11.3694 165.178 11.791C164.96 12.2125 164.848 12.7225 164.841 13.3209Z" fill="white"/>
</svg>
