<svg width="298" height="107" viewBox="0 0 298 107" fill="none" xmlns="http://www.w3.org/2000/svg">
<mask id="path-1-outside-1_0_25" maskUnits="userSpaceOnUse" x="-0.00489814" y="-0.00465323" width="291.914" height="103.323" fill="black">
<rect fill="white" x="-0.00489814" y="-0.00465323" width="291.914" height="103.323"/>
<path d="M27.7039 4.04565L15.9616 35.8367H13.7436L2.00138 4.04565H4.34983L13.0478 27.5736C13.2942 28.255 13.5262 28.9218 13.7436 29.5742C13.9611 30.212 14.164 30.8281 14.3525 31.4225C14.5409 32.0168 14.7077 32.5895 14.8526 33.1403C14.9976 32.5895 15.157 32.0313 15.331 31.466C15.5195 30.8861 15.7224 30.2772 15.9399 29.6394C16.1573 28.987 16.3965 28.2912 16.6574 27.5519L25.3337 4.04565H27.7039Z"/>
<path d="M40.0489 12.2V35.8367H37.8526V12.2H40.0489ZM38.9834 3.45853C39.5342 3.45853 39.9401 3.62524 40.2011 3.95867C40.462 4.27759 40.5925 4.71249 40.5925 5.26336C40.5925 5.81423 40.462 6.24913 40.2011 6.56805C39.9401 6.88698 39.5342 7.04644 38.9834 7.04644C38.4615 7.04644 38.0701 6.88698 37.8091 6.56805C37.5482 6.24913 37.4177 5.81423 37.4177 5.26336C37.4177 4.71249 37.5482 4.27759 37.8091 3.95867C38.0701 3.62524 38.4615 3.45853 38.9834 3.45853Z"/>
<path d="M63.5925 11.7868C64.2159 11.7868 64.803 11.8231 65.3538 11.8956C65.9047 11.968 66.4193 12.0695 66.8977 12.2L66.5498 14.2223C66.0714 14.0918 65.5858 13.9976 65.0929 13.9396C64.6 13.8671 64.0709 13.8309 63.5055 13.8309C62.3893 13.8309 61.389 14.0411 60.5047 14.4615C59.6349 14.8819 58.8956 15.4835 58.2867 16.2663C57.6779 17.0491 57.214 17.9914 56.8951 19.0931C56.5761 20.1949 56.4167 21.4271 56.4167 22.7898V35.8367H54.1987V12.2H56.0905L56.308 16.6577H56.4384C56.8008 15.7444 57.3082 14.9253 57.9606 14.2005C58.6274 13.4612 59.432 12.8741 60.3743 12.4392C61.3165 12.0043 62.3893 11.7868 63.5925 11.7868Z"/>
<path d="M84.1571 34.3798C84.8384 34.3798 85.469 34.329 86.0489 34.2276C86.6433 34.1261 87.1651 33.9956 87.6145 33.8362V35.6627C87.1506 35.8222 86.607 35.9599 85.9837 36.0759C85.3603 36.2064 84.6717 36.2716 83.9179 36.2716C82.5842 36.2716 81.4752 36.0251 80.5909 35.5323C79.7066 35.0249 79.0398 34.2638 78.5904 33.249C78.141 32.2198 77.9163 30.9151 77.9163 29.335V14.0266H74.3936V12.7219L77.8946 12.0478L78.6556 6.48108H80.1125V12.2H87.4841V14.0266H80.1125V29.2045C80.1125 30.9006 80.4242 32.1908 81.0476 33.0751C81.6854 33.9449 82.7219 34.3798 84.1571 34.3798Z"/>
<path d="M117.29 12.2V35.8367H115.507L115.181 31.5747H115.051C114.645 32.4445 114.072 33.2346 113.333 33.9449C112.593 34.6552 111.687 35.2206 110.615 35.641C109.542 36.0614 108.295 36.2716 106.874 36.2716C105.062 36.2716 103.54 35.9599 102.308 35.3366C101.09 34.6987 100.17 33.7419 99.5464 32.4662C98.923 31.1905 98.6114 29.5959 98.6114 27.6824V12.2H100.808V27.4649C100.808 29.8278 101.337 31.5674 102.395 32.6837C103.468 33.7999 105.033 34.358 107.092 34.358C108.831 34.358 110.288 34.0246 111.463 33.3578C112.651 32.6909 113.55 31.6834 114.159 30.3352C114.782 28.9726 115.094 27.2764 115.094 25.2469V12.2H117.29Z"/>
<path d="M139.725 11.7868C142.32 11.7868 144.262 12.4392 145.553 13.7439C146.843 15.0486 147.488 17.1288 147.488 19.9847V35.8367H145.792L145.4 31.7052H145.27C144.762 32.5895 144.146 33.3795 143.422 34.0754C142.697 34.7567 141.805 35.2931 140.747 35.6845C139.703 36.0759 138.427 36.2716 136.92 36.2716C135.398 36.2716 134.093 36.0179 133.006 35.5105C131.933 35.0031 131.099 34.2638 130.505 33.2925C129.925 32.3213 129.635 31.1398 129.635 29.7481C129.635 27.3997 130.607 25.6166 132.549 24.3989C134.492 23.1667 137.282 22.4708 140.921 22.3114L145.313 22.0939V20.3761C145.313 17.9551 144.835 16.23 143.878 15.2008C142.921 14.1715 141.508 13.6569 139.638 13.6569C138.42 13.6569 137.246 13.8164 136.115 14.1353C134.999 14.4397 133.861 14.8819 132.701 15.4617L132.005 13.6351C133.136 13.0988 134.347 12.6566 135.637 12.3087C136.942 11.9608 138.304 11.7868 139.725 11.7868ZM145.292 23.8118L141.16 23.9857C138.159 24.1307 135.876 24.6671 134.31 25.5948C132.745 26.5226 131.962 27.9143 131.962 29.7699C131.962 31.263 132.426 32.4082 133.354 33.2056C134.296 34.0029 135.601 34.4015 137.268 34.4015C139.863 34.4015 141.841 33.6622 143.204 32.1835C144.581 30.7049 145.277 28.6899 145.292 26.1385V23.8118Z"/>
<path d="M163.551 100.607H161.333V2.00163H163.551V100.607Z"/>
<path d="M191.966 35.8367L180.289 6.48108H180.18C180.209 7.01745 180.231 7.58282 180.245 8.17718C180.274 8.75704 180.296 9.3659 180.31 10.0037C180.325 10.6416 180.332 11.3084 180.332 12.0043V35.8367H178.201V4.04565H181.593L192.857 32.3575H192.988L204.339 4.04565H207.644V35.8367H205.448V11.7433C205.448 11.178 205.455 10.5981 205.469 10.0037C205.484 9.40939 205.498 8.82228 205.513 8.24241C205.542 7.64805 205.571 7.07544 205.6 6.52456H205.469L193.749 35.8367H191.966Z"/>
<path d="M224.512 12.2V35.8367H222.315V12.2H224.512ZM223.446 3.45853C223.997 3.45853 224.403 3.62524 224.664 3.95867C224.925 4.27759 225.055 4.71249 225.055 5.26336C225.055 5.81423 224.925 6.24913 224.664 6.56805C224.403 6.88698 223.997 7.04644 223.446 7.04644C222.924 7.04644 222.533 6.88698 222.272 6.56805C222.011 6.24913 221.881 5.81423 221.881 5.26336C221.881 4.71249 222.011 4.27759 222.272 3.95867C222.533 3.62524 222.924 3.45853 223.446 3.45853Z"/>
<path d="M249.056 11.7433C251.709 11.7433 253.745 12.4392 255.166 13.8309C256.587 15.2225 257.297 17.4043 257.297 20.3761V35.8367H255.122V20.5065C255.122 18.1581 254.586 16.433 253.513 15.3313C252.441 14.2295 250.882 13.6786 248.838 13.6786C246.243 13.6786 244.257 14.4397 242.88 15.9619C241.517 17.4695 240.836 19.7527 240.836 22.8115V35.8367H238.64V12.2H240.423L240.749 16.5055H240.88C241.3 15.6212 241.873 14.8239 242.597 14.1135C243.337 13.3887 244.243 12.8161 245.316 12.3957C246.388 11.9608 247.635 11.7433 249.056 11.7433Z"/>
<path d="M279.753 36.2716C276.521 36.2716 274.056 35.2568 272.36 33.2273C270.679 31.1833 269.838 28.2115 269.838 24.3119C269.838 20.2239 270.729 17.1071 272.512 14.9616C274.295 12.8161 276.782 11.7433 279.971 11.7433C281.333 11.7433 282.515 11.9535 283.515 12.3739C284.53 12.7943 285.378 13.367 286.059 14.0918C286.755 14.8021 287.292 15.6139 287.669 16.5272H287.842C287.784 15.7589 287.741 14.9326 287.712 14.0483C287.683 13.164 287.669 12.3522 287.669 11.6129V2.00163H289.865V35.8367H288.082L287.799 31.5095H287.669C287.277 32.3793 286.733 33.1766 286.038 33.9014C285.356 34.6262 284.501 35.2061 283.472 35.641C282.442 36.0614 281.203 36.2716 279.753 36.2716ZM279.993 34.358C282.776 34.358 284.755 33.4955 285.929 31.7704C287.103 30.0308 287.69 27.5519 287.69 24.3336V23.9857C287.69 20.6515 287.103 18.1001 285.929 16.3315C284.755 14.5484 282.841 13.6569 280.188 13.6569C277.564 13.6569 275.557 14.5702 274.165 16.3968C272.788 18.2233 272.099 20.8762 272.099 24.3554C272.099 27.6316 272.744 30.1178 274.034 31.8139C275.339 33.51 277.325 34.358 279.993 34.358Z"/>
</mask>
<path d="M27.7039 4.04565L15.9616 35.8367H13.7436L2.00138 4.04565H4.34983L13.0478 27.5736C13.2942 28.255 13.5262 28.9218 13.7436 29.5742C13.9611 30.212 14.164 30.8281 14.3525 31.4225C14.5409 32.0168 14.7077 32.5895 14.8526 33.1403C14.9976 32.5895 15.157 32.0313 15.331 31.466C15.5195 30.8861 15.7224 30.2772 15.9399 29.6394C16.1573 28.987 16.3965 28.2912 16.6574 27.5519L25.3337 4.04565H27.7039Z" fill="white"/>
<path d="M40.0489 12.2V35.8367H37.8526V12.2H40.0489ZM38.9834 3.45853C39.5342 3.45853 39.9401 3.62524 40.2011 3.95867C40.462 4.27759 40.5925 4.71249 40.5925 5.26336C40.5925 5.81423 40.462 6.24913 40.2011 6.56805C39.9401 6.88698 39.5342 7.04644 38.9834 7.04644C38.4615 7.04644 38.0701 6.88698 37.8091 6.56805C37.5482 6.24913 37.4177 5.81423 37.4177 5.26336C37.4177 4.71249 37.5482 4.27759 37.8091 3.95867C38.0701 3.62524 38.4615 3.45853 38.9834 3.45853Z" fill="white"/>
<path d="M63.5925 11.7868C64.2159 11.7868 64.803 11.8231 65.3538 11.8956C65.9047 11.968 66.4193 12.0695 66.8977 12.2L66.5498 14.2223C66.0714 14.0918 65.5858 13.9976 65.0929 13.9396C64.6 13.8671 64.0709 13.8309 63.5055 13.8309C62.3893 13.8309 61.389 14.0411 60.5047 14.4615C59.6349 14.8819 58.8956 15.4835 58.2867 16.2663C57.6779 17.0491 57.214 17.9914 56.8951 19.0931C56.5761 20.1949 56.4167 21.4271 56.4167 22.7898V35.8367H54.1987V12.2H56.0905L56.308 16.6577H56.4384C56.8008 15.7444 57.3082 14.9253 57.9606 14.2005C58.6274 13.4612 59.432 12.8741 60.3743 12.4392C61.3165 12.0043 62.3893 11.7868 63.5925 11.7868Z" fill="white"/>
<path d="M84.1571 34.3798C84.8384 34.3798 85.469 34.329 86.0489 34.2276C86.6433 34.1261 87.1651 33.9956 87.6145 33.8362V35.6627C87.1506 35.8222 86.607 35.9599 85.9837 36.0759C85.3603 36.2064 84.6717 36.2716 83.9179 36.2716C82.5842 36.2716 81.4752 36.0251 80.5909 35.5323C79.7066 35.0249 79.0398 34.2638 78.5904 33.249C78.141 32.2198 77.9163 30.9151 77.9163 29.335V14.0266H74.3936V12.7219L77.8946 12.0478L78.6556 6.48108H80.1125V12.2H87.4841V14.0266H80.1125V29.2045C80.1125 30.9006 80.4242 32.1908 81.0476 33.0751C81.6854 33.9449 82.7219 34.3798 84.1571 34.3798Z" fill="white"/>
<path d="M117.29 12.2V35.8367H115.507L115.181 31.5747H115.051C114.645 32.4445 114.072 33.2346 113.333 33.9449C112.593 34.6552 111.687 35.2206 110.615 35.641C109.542 36.0614 108.295 36.2716 106.874 36.2716C105.062 36.2716 103.54 35.9599 102.308 35.3366C101.09 34.6987 100.17 33.7419 99.5464 32.4662C98.923 31.1905 98.6114 29.5959 98.6114 27.6824V12.2H100.808V27.4649C100.808 29.8278 101.337 31.5674 102.395 32.6837C103.468 33.7999 105.033 34.358 107.092 34.358C108.831 34.358 110.288 34.0246 111.463 33.3578C112.651 32.6909 113.55 31.6834 114.159 30.3352C114.782 28.9726 115.094 27.2764 115.094 25.2469V12.2H117.29Z" fill="white"/>
<path d="M139.725 11.7868C142.32 11.7868 144.262 12.4392 145.553 13.7439C146.843 15.0486 147.488 17.1288 147.488 19.9847V35.8367H145.792L145.4 31.7052H145.27C144.762 32.5895 144.146 33.3795 143.422 34.0754C142.697 34.7567 141.805 35.2931 140.747 35.6845C139.703 36.0759 138.427 36.2716 136.92 36.2716C135.398 36.2716 134.093 36.0179 133.006 35.5105C131.933 35.0031 131.099 34.2638 130.505 33.2925C129.925 32.3213 129.635 31.1398 129.635 29.7481C129.635 27.3997 130.607 25.6166 132.549 24.3989C134.492 23.1667 137.282 22.4708 140.921 22.3114L145.313 22.0939V20.3761C145.313 17.9551 144.835 16.23 143.878 15.2008C142.921 14.1715 141.508 13.6569 139.638 13.6569C138.42 13.6569 137.246 13.8164 136.115 14.1353C134.999 14.4397 133.861 14.8819 132.701 15.4617L132.005 13.6351C133.136 13.0988 134.347 12.6566 135.637 12.3087C136.942 11.9608 138.304 11.7868 139.725 11.7868ZM145.292 23.8118L141.16 23.9857C138.159 24.1307 135.876 24.6671 134.31 25.5948C132.745 26.5226 131.962 27.9143 131.962 29.7699C131.962 31.263 132.426 32.4082 133.354 33.2056C134.296 34.0029 135.601 34.4015 137.268 34.4015C139.863 34.4015 141.841 33.6622 143.204 32.1835C144.581 30.7049 145.277 28.6899 145.292 26.1385V23.8118Z" fill="white"/>
<path d="M163.551 100.607H161.333V2.00163H163.551V100.607Z" fill="white"/>
<path d="M191.966 35.8367L180.289 6.48108H180.18C180.209 7.01745 180.231 7.58282 180.245 8.17718C180.274 8.75704 180.296 9.3659 180.31 10.0037C180.325 10.6416 180.332 11.3084 180.332 12.0043V35.8367H178.201V4.04565H181.593L192.857 32.3575H192.988L204.339 4.04565H207.644V35.8367H205.448V11.7433C205.448 11.178 205.455 10.5981 205.469 10.0037C205.484 9.40939 205.498 8.82228 205.513 8.24241C205.542 7.64805 205.571 7.07544 205.6 6.52456H205.469L193.749 35.8367H191.966Z" fill="white"/>
<path d="M224.512 12.2V35.8367H222.315V12.2H224.512ZM223.446 3.45853C223.997 3.45853 224.403 3.62524 224.664 3.95867C224.925 4.27759 225.055 4.71249 225.055 5.26336C225.055 5.81423 224.925 6.24913 224.664 6.56805C224.403 6.88698 223.997 7.04644 223.446 7.04644C222.924 7.04644 222.533 6.88698 222.272 6.56805C222.011 6.24913 221.881 5.81423 221.881 5.26336C221.881 4.71249 222.011 4.27759 222.272 3.95867C222.533 3.62524 222.924 3.45853 223.446 3.45853Z" fill="white"/>
<path d="M249.056 11.7433C251.709 11.7433 253.745 12.4392 255.166 13.8309C256.587 15.2225 257.297 17.4043 257.297 20.3761V35.8367H255.122V20.5065C255.122 18.1581 254.586 16.433 253.513 15.3313C252.441 14.2295 250.882 13.6786 248.838 13.6786C246.243 13.6786 244.257 14.4397 242.88 15.9619C241.517 17.4695 240.836 19.7527 240.836 22.8115V35.8367H238.64V12.2H240.423L240.749 16.5055H240.88C241.3 15.6212 241.873 14.8239 242.597 14.1135C243.337 13.3887 244.243 12.8161 245.316 12.3957C246.388 11.9608 247.635 11.7433 249.056 11.7433Z" fill="white"/>
<path d="M279.753 36.2716C276.521 36.2716 274.056 35.2568 272.36 33.2273C270.679 31.1833 269.838 28.2115 269.838 24.3119C269.838 20.2239 270.729 17.1071 272.512 14.9616C274.295 12.8161 276.782 11.7433 279.971 11.7433C281.333 11.7433 282.515 11.9535 283.515 12.3739C284.53 12.7943 285.378 13.367 286.059 14.0918C286.755 14.8021 287.292 15.6139 287.669 16.5272H287.842C287.784 15.7589 287.741 14.9326 287.712 14.0483C287.683 13.164 287.669 12.3522 287.669 11.6129V2.00163H289.865V35.8367H288.082L287.799 31.5095H287.669C287.277 32.3793 286.733 33.1766 286.038 33.9014C285.356 34.6262 284.501 35.2061 283.472 35.641C282.442 36.0614 281.203 36.2716 279.753 36.2716ZM279.993 34.358C282.776 34.358 284.755 33.4955 285.929 31.7704C287.103 30.0308 287.69 27.5519 287.69 24.3336V23.9857C287.69 20.6515 287.103 18.1001 285.929 16.3315C284.755 14.5484 282.841 13.6569 280.188 13.6569C277.564 13.6569 275.557 14.5702 274.165 16.3968C272.788 18.2233 272.099 20.8762 272.099 24.3554C272.099 27.6316 272.744 30.1178 274.034 31.8139C275.339 33.51 277.325 34.358 279.993 34.358Z" fill="white"/>
<path d="M27.7039 4.04565L15.9616 35.8367H13.7436L2.00138 4.04565H4.34983L13.0478 27.5736C13.2942 28.255 13.5262 28.9218 13.7436 29.5742C13.9611 30.212 14.164 30.8281 14.3525 31.4225C14.5409 32.0168 14.7077 32.5895 14.8526 33.1403C14.9976 32.5895 15.157 32.0313 15.331 31.466C15.5195 30.8861 15.7224 30.2772 15.9399 29.6394C16.1573 28.987 16.3965 28.2912 16.6574 27.5519L25.3337 4.04565H27.7039Z" stroke="white" stroke-width="3.99084" stroke-linejoin="round" mask="url(#path-1-outside-1_0_25)"/>
<path d="M40.0489 12.2V35.8367H37.8526V12.2H40.0489ZM38.9834 3.45853C39.5342 3.45853 39.9401 3.62524 40.2011 3.95867C40.462 4.27759 40.5925 4.71249 40.5925 5.26336C40.5925 5.81423 40.462 6.24913 40.2011 6.56805C39.9401 6.88698 39.5342 7.04644 38.9834 7.04644C38.4615 7.04644 38.0701 6.88698 37.8091 6.56805C37.5482 6.24913 37.4177 5.81423 37.4177 5.26336C37.4177 4.71249 37.5482 4.27759 37.8091 3.95867C38.0701 3.62524 38.4615 3.45853 38.9834 3.45853Z" stroke="white" stroke-width="3.99084" stroke-linejoin="round" mask="url(#path-1-outside-1_0_25)"/>
<path d="M63.5925 11.7868C64.2159 11.7868 64.803 11.8231 65.3538 11.8956C65.9047 11.968 66.4193 12.0695 66.8977 12.2L66.5498 14.2223C66.0714 14.0918 65.5858 13.9976 65.0929 13.9396C64.6 13.8671 64.0709 13.8309 63.5055 13.8309C62.3893 13.8309 61.389 14.0411 60.5047 14.4615C59.6349 14.8819 58.8956 15.4835 58.2867 16.2663C57.6779 17.0491 57.214 17.9914 56.8951 19.0931C56.5761 20.1949 56.4167 21.4271 56.4167 22.7898V35.8367H54.1987V12.2H56.0905L56.308 16.6577H56.4384C56.8008 15.7444 57.3082 14.9253 57.9606 14.2005C58.6274 13.4612 59.432 12.8741 60.3743 12.4392C61.3165 12.0043 62.3893 11.7868 63.5925 11.7868Z" stroke="white" stroke-width="3.99084" stroke-linejoin="round" mask="url(#path-1-outside-1_0_25)"/>
<path d="M84.1571 34.3798C84.8384 34.3798 85.469 34.329 86.0489 34.2276C86.6433 34.1261 87.1651 33.9956 87.6145 33.8362V35.6627C87.1506 35.8222 86.607 35.9599 85.9837 36.0759C85.3603 36.2064 84.6717 36.2716 83.9179 36.2716C82.5842 36.2716 81.4752 36.0251 80.5909 35.5323C79.7066 35.0249 79.0398 34.2638 78.5904 33.249C78.141 32.2198 77.9163 30.9151 77.9163 29.335V14.0266H74.3936V12.7219L77.8946 12.0478L78.6556 6.48108H80.1125V12.2H87.4841V14.0266H80.1125V29.2045C80.1125 30.9006 80.4242 32.1908 81.0476 33.0751C81.6854 33.9449 82.7219 34.3798 84.1571 34.3798Z" stroke="white" stroke-width="3.99084" stroke-linejoin="round" mask="url(#path-1-outside-1_0_25)"/>
<path d="M117.29 12.2V35.8367H115.507L115.181 31.5747H115.051C114.645 32.4445 114.072 33.2346 113.333 33.9449C112.593 34.6552 111.687 35.2206 110.615 35.641C109.542 36.0614 108.295 36.2716 106.874 36.2716C105.062 36.2716 103.54 35.9599 102.308 35.3366C101.09 34.6987 100.17 33.7419 99.5464 32.4662C98.923 31.1905 98.6114 29.5959 98.6114 27.6824V12.2H100.808V27.4649C100.808 29.8278 101.337 31.5674 102.395 32.6837C103.468 33.7999 105.033 34.358 107.092 34.358C108.831 34.358 110.288 34.0246 111.463 33.3578C112.651 32.6909 113.55 31.6834 114.159 30.3352C114.782 28.9726 115.094 27.2764 115.094 25.2469V12.2H117.29Z" stroke="white" stroke-width="3.99084" stroke-linejoin="round" mask="url(#path-1-outside-1_0_25)"/>
<path d="M139.725 11.7868C142.32 11.7868 144.262 12.4392 145.553 13.7439C146.843 15.0486 147.488 17.1288 147.488 19.9847V35.8367H145.792L145.4 31.7052H145.27C144.762 32.5895 144.146 33.3795 143.422 34.0754C142.697 34.7567 141.805 35.2931 140.747 35.6845C139.703 36.0759 138.427 36.2716 136.92 36.2716C135.398 36.2716 134.093 36.0179 133.006 35.5105C131.933 35.0031 131.099 34.2638 130.505 33.2925C129.925 32.3213 129.635 31.1398 129.635 29.7481C129.635 27.3997 130.607 25.6166 132.549 24.3989C134.492 23.1667 137.282 22.4708 140.921 22.3114L145.313 22.0939V20.3761C145.313 17.9551 144.835 16.23 143.878 15.2008C142.921 14.1715 141.508 13.6569 139.638 13.6569C138.42 13.6569 137.246 13.8164 136.115 14.1353C134.999 14.4397 133.861 14.8819 132.701 15.4617L132.005 13.6351C133.136 13.0988 134.347 12.6566 135.637 12.3087C136.942 11.9608 138.304 11.7868 139.725 11.7868ZM145.292 23.8118L141.16 23.9857C138.159 24.1307 135.876 24.6671 134.31 25.5948C132.745 26.5226 131.962 27.9143 131.962 29.7699C131.962 31.263 132.426 32.4082 133.354 33.2056C134.296 34.0029 135.601 34.4015 137.268 34.4015C139.863 34.4015 141.841 33.6622 143.204 32.1835C144.581 30.7049 145.277 28.6899 145.292 26.1385V23.8118Z" stroke="white" stroke-width="3.99084" stroke-linejoin="round" mask="url(#path-1-outside-1_0_25)"/>
<path d="M163.551 100.607H161.333V2.00163H163.551V100.607Z" stroke="white" stroke-width="3.99084" stroke-linejoin="round" mask="url(#path-1-outside-1_0_25)"/>
<path d="M191.966 35.8367L180.289 6.48108H180.18C180.209 7.01745 180.231 7.58282 180.245 8.17718C180.274 8.75704 180.296 9.3659 180.31 10.0037C180.325 10.6416 180.332 11.3084 180.332 12.0043V35.8367H178.201V4.04565H181.593L192.857 32.3575H192.988L204.339 4.04565H207.644V35.8367H205.448V11.7433C205.448 11.178 205.455 10.5981 205.469 10.0037C205.484 9.40939 205.498 8.82228 205.513 8.24241C205.542 7.64805 205.571 7.07544 205.6 6.52456H205.469L193.749 35.8367H191.966Z" stroke="white" stroke-width="3.99084" stroke-linejoin="round" mask="url(#path-1-outside-1_0_25)"/>
<path d="M224.512 12.2V35.8367H222.315V12.2H224.512ZM223.446 3.45853C223.997 3.45853 224.403 3.62524 224.664 3.95867C224.925 4.27759 225.055 4.71249 225.055 5.26336C225.055 5.81423 224.925 6.24913 224.664 6.56805C224.403 6.88698 223.997 7.04644 223.446 7.04644C222.924 7.04644 222.533 6.88698 222.272 6.56805C222.011 6.24913 221.881 5.81423 221.881 5.26336C221.881 4.71249 222.011 4.27759 222.272 3.95867C222.533 3.62524 222.924 3.45853 223.446 3.45853Z" stroke="white" stroke-width="3.99084" stroke-linejoin="round" mask="url(#path-1-outside-1_0_25)"/>
<path d="M249.056 11.7433C251.709 11.7433 253.745 12.4392 255.166 13.8309C256.587 15.2225 257.297 17.4043 257.297 20.3761V35.8367H255.122V20.5065C255.122 18.1581 254.586 16.433 253.513 15.3313C252.441 14.2295 250.882 13.6786 248.838 13.6786C246.243 13.6786 244.257 14.4397 242.88 15.9619C241.517 17.4695 240.836 19.7527 240.836 22.8115V35.8367H238.64V12.2H240.423L240.749 16.5055H240.88C241.3 15.6212 241.873 14.8239 242.597 14.1135C243.337 13.3887 244.243 12.8161 245.316 12.3957C246.388 11.9608 247.635 11.7433 249.056 11.7433Z" stroke="white" stroke-width="3.99084" stroke-linejoin="round" mask="url(#path-1-outside-1_0_25)"/>
<path d="M279.753 36.2716C276.521 36.2716 274.056 35.2568 272.36 33.2273C270.679 31.1833 269.838 28.2115 269.838 24.3119C269.838 20.2239 270.729 17.1071 272.512 14.9616C274.295 12.8161 276.782 11.7433 279.971 11.7433C281.333 11.7433 282.515 11.9535 283.515 12.3739C284.53 12.7943 285.378 13.367 286.059 14.0918C286.755 14.8021 287.292 15.6139 287.669 16.5272H287.842C287.784 15.7589 287.741 14.9326 287.712 14.0483C287.683 13.164 287.669 12.3522 287.669 11.6129V2.00163H289.865V35.8367H288.082L287.799 31.5095H287.669C287.277 32.3793 286.733 33.1766 286.038 33.9014C285.356 34.6262 284.501 35.2061 283.472 35.641C282.442 36.0614 281.203 36.2716 279.753 36.2716ZM279.993 34.358C282.776 34.358 284.755 33.4955 285.929 31.7704C287.103 30.0308 287.69 27.5519 287.69 24.3336V23.9857C287.69 20.6515 287.103 18.1001 285.929 16.3315C284.755 14.5484 282.841 13.6569 280.188 13.6569C277.564 13.6569 275.557 14.5702 274.165 16.3968C272.788 18.2233 272.099 20.8762 272.099 24.3554C272.099 27.6316 272.744 30.1178 274.034 31.8139C275.339 33.51 277.325 34.358 279.993 34.358Z" stroke="white" stroke-width="3.99084" stroke-linejoin="round" mask="url(#path-1-outside-1_0_25)"/>
<path d="M11.0297 79.9047V86.0949C11.0297 88.9154 11.7274 90.8897 13.1228 92.0179C14.5479 93.1757 16.9824 93.7547 20.4263 93.7547C23.4249 93.7547 25.5922 93.3687 26.9282 92.5968C28.5611 91.6764 29.4963 90.0287 29.7338 87.6536H26.9727L24.657 84.8034V83.1112H36.9482V87.6536H35.256C35.0185 91.3647 33.534 94.1555 30.8026 96.0259C28.665 97.54 25.9485 98.2971 22.653 98.2971H18.2441C14.5033 98.2971 11.5196 97.3322 9.2929 95.4024C6.82871 93.3836 5.59662 90.4443 5.59662 86.5848V82.0869L8.3577 79.9047H11.0297ZM16.9081 100.88C17.7097 100.88 18.3926 101.162 18.9567 101.726C19.5208 102.29 19.8028 102.973 19.8028 103.775C19.8028 104.576 19.5208 105.259 18.9567 105.823C18.3926 106.387 17.7097 106.669 16.9081 106.669C16.1065 106.669 15.4237 106.387 14.8596 105.823C14.2955 105.259 14.0135 104.576 14.0135 103.775C14.0135 102.973 14.2955 102.29 14.8596 101.726C15.4237 101.162 16.1065 100.88 16.9081 100.88ZM23.6772 100.88C24.4788 100.88 25.1617 101.162 25.7258 101.726C26.2899 102.29 26.5719 102.973 26.5719 103.775C26.5719 104.576 26.2899 105.259 25.7258 105.823C25.1617 106.387 24.4788 106.669 23.6772 106.669C22.9053 106.669 22.2373 106.387 21.6732 105.823C21.1091 105.259 20.8271 104.576 20.8271 103.775C20.8271 102.973 21.1091 102.29 21.6732 101.726C22.2373 101.162 22.9053 100.88 23.6772 100.88Z" fill="white"/>
<path d="M41.3327 83.1112V87.6536H33.094V83.1112H41.3327Z" fill="white"/>
<path d="M66.2151 57.3708C67.0167 57.3708 67.6996 57.6528 68.2637 58.2169C68.8278 58.781 69.1098 59.4638 69.1098 60.2654C69.1098 61.0374 68.8278 61.7054 68.2637 62.2694C67.6996 62.8335 67.0167 63.1156 66.2151 63.1156C65.4432 63.1156 64.7752 62.8335 64.2111 62.2694C63.647 61.7054 63.365 61.0374 63.365 60.2654C63.365 59.4638 63.647 58.781 64.2111 58.2169C64.7752 57.6528 65.4432 57.3708 66.2151 57.3708ZM54.3692 74.6498C58.3475 69.2761 63.2611 66.5892 69.1098 66.5892C72.6725 66.5892 75.6117 67.7025 77.9275 69.9292C80.0354 71.9778 81.0893 74.531 81.0893 77.589V82.7549C81.0893 84.0909 80.6292 85.2191 79.7088 86.1394C78.7884 87.1489 77.6454 87.6536 76.2797 87.6536H40.9646V83.1112H48.9807V67.1681H54.3692V74.6498ZM75.6563 77.8562C75.6563 76.0155 75.0625 74.531 73.8749 73.4028C72.4498 71.9778 70.5794 71.2652 68.2637 71.2652C65.9776 71.2652 63.7509 72.0223 61.5837 73.5364C58.6741 75.5553 56.2693 78.7469 54.3692 83.1112H74.5429C75.2851 83.1112 75.6563 82.74 75.6563 81.9978V77.8562Z" fill="white"/>
<path d="M92.0512 55.7675V86.5402L89.2901 88.7669H86.6181V55.7675H92.0512Z" fill="white"/>
<path d="M107.568 67.1681V83.1112H109.839V87.6536H107.523C107.286 91.2163 105.876 93.9477 103.293 95.8478C101.155 97.4213 98.5277 98.208 95.4104 98.208C94.876 98.208 94.297 98.1932 93.6736 98.1635L91.4914 95.4469V93.532C92.4415 93.6804 93.3618 93.7547 94.2525 93.7547C99.5074 93.7547 102.135 91.2014 102.135 86.0949V67.1681H107.568Z" fill="white"/>
<path d="M113.869 57.3708C114.67 57.3708 115.353 57.6528 115.917 58.2169C116.481 58.781 116.764 59.4638 116.764 60.2654C116.764 61.0374 116.481 61.7054 115.917 62.2694C115.353 62.8335 114.67 63.1156 113.869 63.1156C113.067 63.1156 112.384 62.8335 111.82 62.2694C111.256 61.7054 110.974 61.0374 110.974 60.2654C110.974 59.4638 111.256 58.781 111.82 58.2169C112.384 57.6528 113.067 57.3708 113.869 57.3708ZM120.638 57.3708C121.44 57.3708 122.122 57.6528 122.686 58.2169C123.251 58.781 123.533 59.4638 123.533 60.2654C123.533 61.0374 123.251 61.7054 122.686 62.2694C122.122 62.8335 121.44 63.1156 120.638 63.1156C119.866 63.1156 119.198 62.8335 118.634 62.2694C118.07 61.7054 117.788 61.0374 117.788 60.2654C117.788 59.4638 118.07 58.781 118.634 58.2169C119.198 57.6528 119.866 57.3708 120.638 57.3708ZM122.954 67.1681V83.1112H125.225V87.6536H123.666L122.018 85.8277H121.929C120.92 87.045 119.658 87.6536 118.144 87.6536H109.549V83.1112H116.274C116.689 83.1112 116.986 82.9924 117.164 82.7549C117.432 82.5174 117.565 82.2205 117.565 81.8642V67.1681H122.954Z" fill="white"/>
<path d="M142.18 57.3708C142.982 57.3708 143.664 57.6528 144.229 58.2169C144.793 58.781 145.075 59.4638 145.075 60.2654C145.075 61.0374 144.793 61.7054 144.229 62.2694C143.664 62.8335 142.982 63.1156 142.18 63.1156C141.408 63.1156 140.74 62.8335 140.176 62.2694C139.612 61.7054 139.33 61.0374 139.33 60.2654C139.33 59.4638 139.612 58.781 140.176 58.2169C140.74 57.6528 141.408 57.3708 142.18 57.3708ZM133.852 83.1112C133.169 82.2502 132.635 81.2259 132.249 80.0383C131.922 78.9102 131.759 77.782 131.759 76.6538C131.759 74.0411 132.516 71.859 134.03 70.1074C135.96 67.7916 138.677 66.6337 142.18 66.6337C144.674 66.6337 146.752 67.3017 148.415 68.6377C150.226 70.1816 151.131 72.2598 151.131 74.8724V82.7549C151.131 83.9721 150.73 85.0558 149.929 86.0058C148.979 87.1043 147.776 87.6536 146.322 87.6536H124.901V83.1112H133.852ZM145.698 74.8724C145.698 73.6552 145.282 72.6755 144.451 71.9332C143.798 71.4285 143.041 71.1762 142.18 71.1762C140.25 71.1762 138.855 71.9332 137.994 73.4474C137.43 74.3974 137.148 75.5998 137.148 77.0546C137.148 79.0438 137.771 80.6024 139.018 81.7306C140.028 82.651 141.349 83.1112 142.982 83.1112H144.585C145.327 83.1112 145.698 82.74 145.698 81.9978V74.8724Z" fill="white"/>
<path d="M202.737 55.7675V83.1112H204.964V87.6536H202.693C202.485 90.9194 201.268 93.5172 199.041 95.4469C196.755 97.347 193.771 98.2971 190.09 98.2971H185.681C181.673 98.2971 178.526 97.1986 176.24 95.0016C174.102 92.9234 173.033 90.1178 173.033 86.5848V78.6133L175.794 76.3866H178.467V86.0949C178.467 88.9154 179.179 90.8897 180.604 92.0179C182.029 93.1757 184.464 93.7547 187.908 93.7547C191.262 93.7547 193.623 93.2351 194.988 92.196C196.532 91.0084 197.304 88.9747 197.304 86.0949V55.7675H202.737Z" fill="white"/>
<path d="M212.9 83.1112V87.6536H204.661V83.1112H212.9Z" fill="white"/>
<path d="M220.815 83.1112V87.6536H212.576V83.1112H220.815Z" fill="white"/>
<path d="M228.73 83.1112V87.6536H220.492V83.1112H228.73Z" fill="white"/>
<path d="M241.811 57.3708C242.613 57.3708 243.296 57.6528 243.86 58.2169C244.424 58.781 244.706 59.4638 244.706 60.2654C244.706 61.0374 244.424 61.7054 243.86 62.2694C243.296 62.8335 242.613 63.1156 241.811 63.1156C241.039 63.1156 240.371 62.8335 239.807 62.2694C239.243 61.7054 238.961 61.0374 238.961 60.2654C238.961 59.4638 239.243 58.781 239.807 58.2169C240.371 57.6528 241.039 57.3708 241.811 57.3708ZM248.58 57.3708C249.382 57.3708 250.065 57.6528 250.629 58.2169C251.193 58.781 251.475 59.4638 251.475 60.2654C251.475 61.0374 251.193 61.7054 250.629 62.2694C250.065 62.8335 249.382 63.1156 248.58 63.1156C247.779 63.1156 247.096 62.8484 246.532 62.314C245.997 61.7499 245.73 61.067 245.73 60.2654C245.73 59.4638 245.997 58.781 246.532 58.2169C247.096 57.6528 247.779 57.3708 248.58 57.3708ZM237.269 83.1112C235.933 81.3298 235.265 79.1774 235.265 76.6538C235.265 74.3677 235.844 72.3934 237.002 70.7308C238.872 67.9994 241.574 66.6337 245.107 66.6337C247.779 66.6337 250.02 67.465 251.831 69.1276C253.939 71.0574 254.993 73.5661 254.993 76.6538C254.993 79.0883 254.325 81.2407 252.989 83.1112H256.062V87.6536H249.382C247.452 87.6536 246.057 87.4606 245.196 87.0746H244.973C244.142 87.4606 242.747 87.6536 240.787 87.6536H228.407V83.1112H237.269ZM245.107 83.0666C246.443 82.9182 247.512 82.3095 248.313 81.2407C249.144 80.1422 249.56 78.7469 249.56 77.0546C249.56 75.2732 249.159 73.8482 248.358 72.7794C247.556 71.7106 246.472 71.1762 245.107 71.1762C243.771 71.1762 242.687 71.7106 241.856 72.7794C241.054 73.8482 240.653 75.2732 240.653 77.0546C240.653 78.7469 241.054 80.1422 241.856 81.2407C242.687 82.3095 243.771 82.9182 245.107 83.0666Z" fill="white"/>
<path d="M264 83.1112V87.6536H255.762V83.1112H264Z" fill="white"/>
<path d="M271.916 83.1112V87.6536H263.677V83.1112H271.916Z" fill="white"/>
<path d="M280.543 83.1112C280.009 82.4877 279.534 81.6415 279.118 80.5727C278.673 79.3258 278.45 78.0195 278.45 76.6538C278.45 73.2692 279.653 70.6714 282.057 68.8604C284.017 67.376 286.481 66.6337 289.45 66.6337C291.024 66.6337 292.656 66.8861 294.349 67.3908V71.666C292.656 71.2801 291.202 71.0871 289.984 71.0871C285.917 71.0871 283.883 73.1208 283.883 77.1882C283.883 78.4945 284.195 79.6524 284.819 80.6618C285.858 82.2947 287.372 83.1112 289.361 83.1112H298V84.8925L295.774 87.6536H271.592V83.1112H280.543Z" fill="white"/>
<path d="M11.0297 79.9047V86.0949C11.0297 88.9154 11.7274 90.8897 13.1228 92.0179C14.5479 93.1757 16.9824 93.7547 20.4263 93.7547C23.4249 93.7547 25.5922 93.3687 26.9282 92.5968C28.5611 91.6764 29.4963 90.0287 29.7338 87.6536H26.9727L24.657 84.8034V83.1112H36.9482V87.6536H35.256C35.0185 91.3647 33.534 94.1555 30.8026 96.0259C28.665 97.54 25.9485 98.2971 22.653 98.2971H18.2441C14.5033 98.2971 11.5196 97.3322 9.2929 95.4024C6.82871 93.3836 5.59662 90.4443 5.59662 86.5848V82.0869L8.3577 79.9047H11.0297ZM16.9081 100.88C17.7097 100.88 18.3926 101.162 18.9567 101.726C19.5208 102.29 19.8028 102.973 19.8028 103.775C19.8028 104.576 19.5208 105.259 18.9567 105.823C18.3926 106.387 17.7097 106.669 16.9081 106.669C16.1065 106.669 15.4237 106.387 14.8596 105.823C14.2955 105.259 14.0135 104.576 14.0135 103.775C14.0135 102.973 14.2955 102.29 14.8596 101.726C15.4237 101.162 16.1065 100.88 16.9081 100.88ZM23.6772 100.88C24.4788 100.88 25.1617 101.162 25.7258 101.726C26.2899 102.29 26.5719 102.973 26.5719 103.775C26.5719 104.576 26.2899 105.259 25.7258 105.823C25.1617 106.387 24.4788 106.669 23.6772 106.669C22.9053 106.669 22.2373 106.387 21.6732 105.823C21.1091 105.259 20.8271 104.576 20.8271 103.775C20.8271 102.973 21.1091 102.29 21.6732 101.726C22.2373 101.162 22.9053 100.88 23.6772 100.88Z" stroke="white"/>
<path d="M41.3327 83.1112V87.6536H33.094V83.1112H41.3327Z" stroke="white"/>
<path d="M66.2151 57.3708C67.0167 57.3708 67.6996 57.6528 68.2637 58.2169C68.8278 58.781 69.1098 59.4638 69.1098 60.2654C69.1098 61.0374 68.8278 61.7054 68.2637 62.2694C67.6996 62.8335 67.0167 63.1156 66.2151 63.1156C65.4432 63.1156 64.7752 62.8335 64.2111 62.2694C63.647 61.7054 63.365 61.0374 63.365 60.2654C63.365 59.4638 63.647 58.781 64.2111 58.2169C64.7752 57.6528 65.4432 57.3708 66.2151 57.3708ZM54.3692 74.6498C58.3475 69.2761 63.2611 66.5892 69.1098 66.5892C72.6725 66.5892 75.6117 67.7025 77.9275 69.9292C80.0354 71.9778 81.0893 74.531 81.0893 77.589V82.7549C81.0893 84.0909 80.6292 85.2191 79.7088 86.1394C78.7884 87.1489 77.6454 87.6536 76.2797 87.6536H40.9646V83.1112H48.9807V67.1681H54.3692V74.6498ZM75.6563 77.8562C75.6563 76.0155 75.0625 74.531 73.8749 73.4028C72.4498 71.9778 70.5794 71.2652 68.2637 71.2652C65.9776 71.2652 63.7509 72.0223 61.5837 73.5364C58.6741 75.5553 56.2693 78.7469 54.3692 83.1112H74.5429C75.2851 83.1112 75.6563 82.74 75.6563 81.9978V77.8562Z" stroke="white"/>
<path d="M92.0512 55.7675V86.5402L89.2901 88.7669H86.6181V55.7675H92.0512Z" stroke="white"/>
<path d="M107.568 67.1681V83.1112H109.839V87.6536H107.523C107.286 91.2163 105.876 93.9477 103.293 95.8478C101.155 97.4213 98.5277 98.208 95.4104 98.208C94.876 98.208 94.297 98.1932 93.6736 98.1635L91.4914 95.4469V93.532C92.4415 93.6804 93.3618 93.7547 94.2525 93.7547C99.5074 93.7547 102.135 91.2014 102.135 86.0949V67.1681H107.568Z" stroke="white"/>
<path d="M113.869 57.3708C114.67 57.3708 115.353 57.6528 115.917 58.2169C116.481 58.781 116.764 59.4638 116.764 60.2654C116.764 61.0374 116.481 61.7054 115.917 62.2694C115.353 62.8335 114.67 63.1156 113.869 63.1156C113.067 63.1156 112.384 62.8335 111.82 62.2694C111.256 61.7054 110.974 61.0374 110.974 60.2654C110.974 59.4638 111.256 58.781 111.82 58.2169C112.384 57.6528 113.067 57.3708 113.869 57.3708ZM120.638 57.3708C121.44 57.3708 122.122 57.6528 122.686 58.2169C123.251 58.781 123.533 59.4638 123.533 60.2654C123.533 61.0374 123.251 61.7054 122.686 62.2694C122.122 62.8335 121.44 63.1156 120.638 63.1156C119.866 63.1156 119.198 62.8335 118.634 62.2694C118.07 61.7054 117.788 61.0374 117.788 60.2654C117.788 59.4638 118.07 58.781 118.634 58.2169C119.198 57.6528 119.866 57.3708 120.638 57.3708ZM122.954 67.1681V83.1112H125.225V87.6536H123.666L122.018 85.8277H121.929C120.92 87.045 119.658 87.6536 118.144 87.6536H109.549V83.1112H116.274C116.689 83.1112 116.986 82.9924 117.164 82.7549C117.432 82.5174 117.565 82.2205 117.565 81.8642V67.1681H122.954Z" stroke="white"/>
<path d="M142.18 57.3708C142.982 57.3708 143.664 57.6528 144.229 58.2169C144.793 58.781 145.075 59.4638 145.075 60.2654C145.075 61.0374 144.793 61.7054 144.229 62.2694C143.664 62.8335 142.982 63.1156 142.18 63.1156C141.408 63.1156 140.74 62.8335 140.176 62.2694C139.612 61.7054 139.33 61.0374 139.33 60.2654C139.33 59.4638 139.612 58.781 140.176 58.2169C140.74 57.6528 141.408 57.3708 142.18 57.3708ZM133.852 83.1112C133.169 82.2502 132.635 81.2259 132.249 80.0383C131.922 78.9102 131.759 77.782 131.759 76.6538C131.759 74.0411 132.516 71.859 134.03 70.1074C135.96 67.7916 138.677 66.6337 142.18 66.6337C144.674 66.6337 146.752 67.3017 148.415 68.6377C150.226 70.1816 151.131 72.2598 151.131 74.8724V82.7549C151.131 83.9721 150.73 85.0558 149.929 86.0058C148.979 87.1043 147.776 87.6536 146.322 87.6536H124.901V83.1112H133.852ZM145.698 74.8724C145.698 73.6552 145.282 72.6755 144.451 71.9332C143.798 71.4285 143.041 71.1762 142.18 71.1762C140.25 71.1762 138.855 71.9332 137.994 73.4474C137.43 74.3974 137.148 75.5998 137.148 77.0546C137.148 79.0438 137.771 80.6024 139.018 81.7306C140.028 82.651 141.349 83.1112 142.982 83.1112H144.585C145.327 83.1112 145.698 82.74 145.698 81.9978V74.8724Z" stroke="white"/>
<path d="M202.737 55.7675V83.1112H204.964V87.6536H202.693C202.485 90.9194 201.268 93.5172 199.041 95.4469C196.755 97.347 193.771 98.2971 190.09 98.2971H185.681C181.673 98.2971 178.526 97.1986 176.24 95.0016C174.102 92.9234 173.033 90.1178 173.033 86.5848V78.6133L175.794 76.3866H178.467V86.0949C178.467 88.9154 179.179 90.8897 180.604 92.0179C182.029 93.1757 184.464 93.7547 187.908 93.7547C191.262 93.7547 193.623 93.2351 194.988 92.196C196.532 91.0084 197.304 88.9747 197.304 86.0949V55.7675H202.737Z" stroke="white"/>
<path d="M212.9 83.1112V87.6536H204.661V83.1112H212.9Z" stroke="white"/>
<path d="M220.815 83.1112V87.6536H212.576V83.1112H220.815Z" stroke="white"/>
<path d="M228.73 83.1112V87.6536H220.492V83.1112H228.73Z" stroke="white"/>
<path d="M241.811 57.3708C242.613 57.3708 243.296 57.6528 243.86 58.2169C244.424 58.781 244.706 59.4638 244.706 60.2654C244.706 61.0374 244.424 61.7054 243.86 62.2694C243.296 62.8335 242.613 63.1156 241.811 63.1156C241.039 63.1156 240.371 62.8335 239.807 62.2694C239.243 61.7054 238.961 61.0374 238.961 60.2654C238.961 59.4638 239.243 58.781 239.807 58.2169C240.371 57.6528 241.039 57.3708 241.811 57.3708ZM248.58 57.3708C249.382 57.3708 250.065 57.6528 250.629 58.2169C251.193 58.781 251.475 59.4638 251.475 60.2654C251.475 61.0374 251.193 61.7054 250.629 62.2694C250.065 62.8335 249.382 63.1156 248.58 63.1156C247.779 63.1156 247.096 62.8484 246.532 62.314C245.997 61.7499 245.73 61.067 245.73 60.2654C245.73 59.4638 245.997 58.781 246.532 58.2169C247.096 57.6528 247.779 57.3708 248.58 57.3708ZM237.269 83.1112C235.933 81.3298 235.265 79.1774 235.265 76.6538C235.265 74.3677 235.844 72.3934 237.002 70.7308C238.872 67.9994 241.574 66.6337 245.107 66.6337C247.779 66.6337 250.02 67.465 251.831 69.1276C253.939 71.0574 254.993 73.5661 254.993 76.6538C254.993 79.0883 254.325 81.2407 252.989 83.1112H256.062V87.6536H249.382C247.452 87.6536 246.057 87.4606 245.196 87.0746H244.973C244.142 87.4606 242.747 87.6536 240.787 87.6536H228.407V83.1112H237.269ZM245.107 83.0666C246.443 82.9182 247.512 82.3095 248.313 81.2407C249.144 80.1422 249.56 78.7469 249.56 77.0546C249.56 75.2732 249.159 73.8482 248.358 72.7794C247.556 71.7106 246.472 71.1762 245.107 71.1762C243.771 71.1762 242.687 71.7106 241.856 72.7794C241.054 73.8482 240.653 75.2732 240.653 77.0546C240.653 78.7469 241.054 80.1422 241.856 81.2407C242.687 82.3095 243.771 82.9182 245.107 83.0666Z" stroke="white"/>
<path d="M264 83.1112V87.6536H255.762V83.1112H264Z" stroke="white"/>
<path d="M271.916 83.1112V87.6536H263.677V83.1112H271.916Z" stroke="white"/>
<path d="M280.543 83.1112C280.009 82.4877 279.534 81.6415 279.118 80.5727C278.673 79.3258 278.45 78.0195 278.45 76.6538C278.45 73.2692 279.653 70.6714 282.057 68.8604C284.017 67.376 286.481 66.6337 289.45 66.6337C291.024 66.6337 292.656 66.8861 294.349 67.3908V71.666C292.656 71.2801 291.202 71.0871 289.984 71.0871C285.917 71.0871 283.883 73.1208 283.883 77.1882C283.883 78.4945 284.195 79.6524 284.819 80.6618C285.858 82.2947 287.372 83.1112 289.361 83.1112H298V84.8925L295.774 87.6536H271.592V83.1112H280.543Z" stroke="white"/>
</svg>
