<svg width="139" height="50" viewBox="0 0 139 50" fill="none" xmlns="http://www.w3.org/2000/svg">
<mask id="path-1-outside-1_0_63" maskUnits="userSpaceOnUse" x="-0.0737594" y="-0.0733906" width="136.96" height="48.3389" fill="black">
<rect fill="white" x="-0.0737594" y="-0.0733906" width="136.96" height="48.3389"/>
<path d="M12.922 1.88709L7.44495 16.7158H6.41039L0.933302 1.88709H2.02872L6.08582 12.8615C6.20077 13.1794 6.30896 13.4904 6.41039 13.7947C6.51181 14.0922 6.60648 14.3796 6.69438 14.6568C6.78229 14.934 6.86005 15.2011 6.92767 15.4581C6.99529 15.2011 7.06967 14.9408 7.15081 14.6771C7.23871 14.4066 7.33338 14.1226 7.4348 13.8251C7.53623 13.5208 7.6478 13.1963 7.76952 12.8514L11.8165 1.88709H12.922Z"/>
<path d="M18.6803 5.69062V16.7158H17.6559V5.69062H18.6803ZM18.1833 1.61323C18.4402 1.61323 18.6296 1.691 18.7513 1.84652C18.873 1.99528 18.9338 2.19813 18.9338 2.45508C18.9338 2.71203 18.873 2.91489 18.7513 3.06365C18.6296 3.21241 18.4402 3.28679 18.1833 3.28679C17.9399 3.28679 17.7573 3.21241 17.6356 3.06365C17.5139 2.91489 17.453 2.71203 17.453 2.45508C17.453 2.19813 17.5139 1.99528 17.6356 1.84652C17.7573 1.691 17.9399 1.61323 18.1833 1.61323Z"/>
<path d="M29.662 5.49791C29.9528 5.49791 30.2266 5.51481 30.4836 5.54862C30.7405 5.58243 30.9806 5.62976 31.2037 5.69062L31.0414 6.6339C30.8183 6.57304 30.5918 6.52909 30.3619 6.50204C30.132 6.46823 29.8852 6.45133 29.6215 6.45133C29.1008 6.45133 28.6342 6.54937 28.2218 6.74547C27.8161 6.94156 27.4712 7.22218 27.1872 7.58732C26.9032 7.95245 26.6868 8.39197 26.5381 8.90587C26.3893 9.41977 26.3149 9.99453 26.3149 10.6301V16.7158H25.2804V5.69062H26.1628L26.2642 7.76988H26.3251C26.4941 7.34389 26.7308 6.96185 27.0351 6.62375C27.3461 6.2789 27.7214 6.00505 28.1609 5.80219C28.6004 5.59934 29.1008 5.49791 29.662 5.49791Z"/>
<path d="M39.2542 16.0362C39.572 16.0362 39.8662 16.0126 40.1367 15.9652C40.4139 15.9179 40.6573 15.857 40.8669 15.7827V16.6346C40.6506 16.709 40.397 16.7733 40.1062 16.8274C39.8155 16.8882 39.4943 16.9186 39.1427 16.9186C38.5206 16.9186 38.0033 16.8037 37.5908 16.5738C37.1784 16.3371 36.8673 15.9821 36.6577 15.5088C36.4481 15.0287 36.3433 14.4201 36.3433 13.6831V6.54261H34.7001V5.93405L36.3331 5.61962L36.6881 3.02308H37.3677V5.69062H40.8061V6.54261H37.3677V13.6223C37.3677 14.4134 37.5131 15.0152 37.8038 15.4277C38.1013 15.8334 38.5848 16.0362 39.2542 16.0362Z"/>
<path d="M54.709 5.69062V16.7158H53.8772L53.7251 14.7278H53.6642C53.4749 15.1335 53.2078 15.502 52.863 15.8334C52.5181 16.1647 52.0955 16.4284 51.5951 16.6245C51.0948 16.8206 50.5132 16.9186 49.8506 16.9186C49.0053 16.9186 48.2953 16.7733 47.7206 16.4825C47.1526 16.185 46.7232 15.7387 46.4325 15.1437C46.1417 14.5486 45.9963 13.8048 45.9963 12.9123V5.69062H47.0207V12.8108C47.0207 13.913 47.2676 14.7244 47.7612 15.2451C48.2615 15.7658 48.9918 16.0261 49.952 16.0261C50.7634 16.0261 51.443 15.8706 51.9907 15.5595C52.5452 15.2485 52.9644 14.7785 53.2484 14.1497C53.5392 13.5141 53.6845 12.7229 53.6845 11.7763V5.69062H54.709Z"/>
<path d="M65.1734 5.49791C66.3838 5.49791 67.2899 5.80219 67.8917 6.41076C68.4935 7.01932 68.7944 7.98964 68.7944 9.32173V16.7158H68.0033L67.8207 14.7887H67.7598C67.5232 15.2011 67.2358 15.5697 66.8977 15.8942C66.5596 16.212 66.1437 16.4622 65.6501 16.6448C65.1633 16.8274 64.5682 16.9186 63.865 16.9186C63.155 16.9186 62.5465 16.8003 62.0393 16.5636C61.5389 16.327 61.1501 15.9821 60.8729 15.5291C60.6024 15.076 60.4672 14.525 60.4672 13.8758C60.4672 12.7804 60.9202 11.9487 61.8263 11.3807C62.7324 10.8059 64.0341 10.4814 65.7313 10.407L67.7801 10.3056V9.5043C67.7801 8.37507 67.557 7.57041 67.1107 7.09032C66.6644 6.61023 66.0051 6.37019 65.1329 6.37019C64.5649 6.37019 64.0172 6.44456 63.4897 6.59333C62.9691 6.73532 62.4383 6.94156 61.8973 7.21203L61.5728 6.36004C62.1002 6.10985 62.6648 5.90362 63.2666 5.74133C63.8752 5.57905 64.5108 5.49791 65.1734 5.49791ZM67.77 11.1069L65.8428 11.188C64.4432 11.2556 63.3782 11.5058 62.6479 11.9386C61.9176 12.3713 61.5525 13.0204 61.5525 13.886C61.5525 14.5824 61.7688 15.1166 62.2016 15.4885C62.6411 15.8604 63.2497 16.0464 64.0273 16.0464C65.2377 16.0464 66.1607 15.7015 66.7963 15.0118C67.4386 14.3221 67.7632 13.3822 67.77 12.1921V11.1069Z"/>
<path d="M76.287 46.9276H75.2525V0.933671H76.287V46.9276Z"/>
<path d="M89.5408 16.7158L84.0941 3.02308H84.0434C84.0569 3.27326 84.0671 3.53698 84.0738 3.81421C84.0874 4.08469 84.0975 4.36868 84.1043 4.6662C84.111 4.96372 84.1144 5.27477 84.1144 5.59934V16.7158H83.1204V1.88709H84.7027L89.9566 15.093H90.0175L95.312 1.88709H96.8537V16.7158H95.8293V5.47762C95.8293 5.21391 95.8327 4.94344 95.8394 4.6662C95.8462 4.38897 95.853 4.11511 95.8597 3.84464C95.8732 3.5674 95.8868 3.30031 95.9003 3.04336H95.8394L90.3725 16.7158H89.5408Z"/>
<path d="M104.722 5.69062V16.7158H103.697V5.69062H104.722ZM104.225 1.61323C104.482 1.61323 104.671 1.691 104.793 1.84652C104.914 1.99528 104.975 2.19813 104.975 2.45508C104.975 2.71203 104.914 2.91489 104.793 3.06365C104.671 3.21241 104.482 3.28679 104.225 3.28679C103.981 3.28679 103.799 3.21241 103.677 3.06365C103.555 2.91489 103.494 2.71203 103.494 2.45508C103.494 2.19813 103.555 1.99528 103.677 1.84652C103.799 1.691 103.981 1.61323 104.225 1.61323Z"/>
<path d="M116.17 5.47762C117.407 5.47762 118.357 5.80219 119.02 6.45133C119.683 7.10046 120.014 8.11812 120.014 9.5043V16.7158H119V9.56515C119 8.46973 118.75 7.66508 118.249 7.15118C117.749 6.63728 117.022 6.38033 116.069 6.38033C114.858 6.38033 113.932 6.73532 113.289 7.44532C112.654 8.14855 112.336 9.21354 112.336 10.6403V16.7158H111.312V5.69062H112.143L112.295 7.69889H112.356C112.552 7.28641 112.819 6.91451 113.158 6.58318C113.502 6.24509 113.925 5.978 114.425 5.78191C114.926 5.57905 115.507 5.47762 116.17 5.47762Z"/>
<path d="M130.489 16.9186C128.981 16.9186 127.831 16.4453 127.04 15.4987C126.256 14.5452 125.864 13.1591 125.864 11.3401C125.864 9.4333 126.279 7.9795 127.111 6.97875C127.943 5.978 129.103 5.47762 130.59 5.47762C131.226 5.47762 131.777 5.57567 132.243 5.77176C132.717 5.96786 133.112 6.23495 133.43 6.57304C133.755 6.90437 134.005 7.28303 134.181 7.70903H134.262C134.235 7.35065 134.214 6.96523 134.201 6.55275C134.187 6.14028 134.181 5.76162 134.181 5.41677V0.933671H135.205V16.7158H134.373L134.242 14.6974H134.181C133.998 15.1031 133.745 15.475 133.42 15.8131C133.102 16.1512 132.703 16.4217 132.223 16.6245C131.743 16.8206 131.165 16.9186 130.489 16.9186ZM130.6 16.0261C131.899 16.0261 132.822 15.6238 133.369 14.8191C133.917 14.0077 134.191 12.8514 134.191 11.3503V11.188C134.191 9.63277 133.917 8.44269 133.369 7.61774C132.822 6.78604 131.929 6.37019 130.692 6.37019C129.468 6.37019 128.531 6.79618 127.882 7.64817C127.24 8.50016 126.918 9.73758 126.918 11.3604C126.918 12.8886 127.219 14.0482 127.821 14.8394C128.43 15.6305 129.356 16.0261 130.6 16.0261Z"/>
</mask>
<path d="M12.922 1.88709L7.44495 16.7158H6.41039L0.933302 1.88709H2.02872L6.08582 12.8615C6.20077 13.1794 6.30896 13.4904 6.41039 13.7947C6.51181 14.0922 6.60648 14.3796 6.69438 14.6568C6.78229 14.934 6.86005 15.2011 6.92767 15.4581C6.99529 15.2011 7.06967 14.9408 7.15081 14.6771C7.23871 14.4066 7.33338 14.1226 7.4348 13.8251C7.53623 13.5208 7.6478 13.1963 7.76952 12.8514L11.8165 1.88709H12.922Z" fill="white"/>
<path d="M18.6803 5.69062V16.7158H17.6559V5.69062H18.6803ZM18.1833 1.61323C18.4402 1.61323 18.6296 1.691 18.7513 1.84652C18.873 1.99528 18.9338 2.19813 18.9338 2.45508C18.9338 2.71203 18.873 2.91489 18.7513 3.06365C18.6296 3.21241 18.4402 3.28679 18.1833 3.28679C17.9399 3.28679 17.7573 3.21241 17.6356 3.06365C17.5139 2.91489 17.453 2.71203 17.453 2.45508C17.453 2.19813 17.5139 1.99528 17.6356 1.84652C17.7573 1.691 17.9399 1.61323 18.1833 1.61323Z" fill="white"/>
<path d="M29.662 5.49791C29.9528 5.49791 30.2266 5.51481 30.4836 5.54862C30.7405 5.58243 30.9806 5.62976 31.2037 5.69062L31.0414 6.6339C30.8183 6.57304 30.5918 6.52909 30.3619 6.50204C30.132 6.46823 29.8852 6.45133 29.6215 6.45133C29.1008 6.45133 28.6342 6.54937 28.2218 6.74547C27.8161 6.94156 27.4712 7.22218 27.1872 7.58732C26.9032 7.95245 26.6868 8.39197 26.5381 8.90587C26.3893 9.41977 26.3149 9.99453 26.3149 10.6301V16.7158H25.2804V5.69062H26.1628L26.2642 7.76988H26.3251C26.4941 7.34389 26.7308 6.96185 27.0351 6.62375C27.3461 6.2789 27.7214 6.00505 28.1609 5.80219C28.6004 5.59934 29.1008 5.49791 29.662 5.49791Z" fill="white"/>
<path d="M39.2542 16.0362C39.572 16.0362 39.8662 16.0126 40.1367 15.9652C40.4139 15.9179 40.6573 15.857 40.8669 15.7827V16.6346C40.6506 16.709 40.397 16.7733 40.1062 16.8274C39.8155 16.8882 39.4943 16.9186 39.1427 16.9186C38.5206 16.9186 38.0033 16.8037 37.5908 16.5738C37.1784 16.3371 36.8673 15.9821 36.6577 15.5088C36.4481 15.0287 36.3433 14.4201 36.3433 13.6831V6.54261H34.7001V5.93405L36.3331 5.61962L36.6881 3.02308H37.3677V5.69062H40.8061V6.54261H37.3677V13.6223C37.3677 14.4134 37.5131 15.0152 37.8038 15.4277C38.1013 15.8334 38.5848 16.0362 39.2542 16.0362Z" fill="white"/>
<path d="M54.709 5.69062V16.7158H53.8772L53.7251 14.7278H53.6642C53.4749 15.1335 53.2078 15.502 52.863 15.8334C52.5181 16.1647 52.0955 16.4284 51.5951 16.6245C51.0948 16.8206 50.5132 16.9186 49.8506 16.9186C49.0053 16.9186 48.2953 16.7733 47.7206 16.4825C47.1526 16.185 46.7232 15.7387 46.4325 15.1437C46.1417 14.5486 45.9963 13.8048 45.9963 12.9123V5.69062H47.0207V12.8108C47.0207 13.913 47.2676 14.7244 47.7612 15.2451C48.2615 15.7658 48.9918 16.0261 49.952 16.0261C50.7634 16.0261 51.443 15.8706 51.9907 15.5595C52.5452 15.2485 52.9644 14.7785 53.2484 14.1497C53.5392 13.5141 53.6845 12.7229 53.6845 11.7763V5.69062H54.709Z" fill="white"/>
<path d="M65.1734 5.49791C66.3838 5.49791 67.2899 5.80219 67.8917 6.41076C68.4935 7.01932 68.7944 7.98964 68.7944 9.32173V16.7158H68.0033L67.8207 14.7887H67.7598C67.5232 15.2011 67.2358 15.5697 66.8977 15.8942C66.5596 16.212 66.1437 16.4622 65.6501 16.6448C65.1633 16.8274 64.5682 16.9186 63.865 16.9186C63.155 16.9186 62.5465 16.8003 62.0393 16.5636C61.5389 16.327 61.1501 15.9821 60.8729 15.5291C60.6024 15.076 60.4672 14.525 60.4672 13.8758C60.4672 12.7804 60.9202 11.9487 61.8263 11.3807C62.7324 10.8059 64.0341 10.4814 65.7313 10.407L67.7801 10.3056V9.5043C67.7801 8.37507 67.557 7.57041 67.1107 7.09032C66.6644 6.61023 66.0051 6.37019 65.1329 6.37019C64.5649 6.37019 64.0172 6.44456 63.4897 6.59333C62.9691 6.73532 62.4383 6.94156 61.8973 7.21203L61.5728 6.36004C62.1002 6.10985 62.6648 5.90362 63.2666 5.74133C63.8752 5.57905 64.5108 5.49791 65.1734 5.49791ZM67.77 11.1069L65.8428 11.188C64.4432 11.2556 63.3782 11.5058 62.6479 11.9386C61.9176 12.3713 61.5525 13.0204 61.5525 13.886C61.5525 14.5824 61.7688 15.1166 62.2016 15.4885C62.6411 15.8604 63.2497 16.0464 64.0273 16.0464C65.2377 16.0464 66.1607 15.7015 66.7963 15.0118C67.4386 14.3221 67.7632 13.3822 67.77 12.1921V11.1069Z" fill="white"/>
<path d="M76.287 46.9276H75.2525V0.933671H76.287V46.9276Z" fill="white"/>
<path d="M89.5408 16.7158L84.0941 3.02308H84.0434C84.0569 3.27326 84.0671 3.53698 84.0738 3.81421C84.0874 4.08469 84.0975 4.36868 84.1043 4.6662C84.111 4.96372 84.1144 5.27477 84.1144 5.59934V16.7158H83.1204V1.88709H84.7027L89.9566 15.093H90.0175L95.312 1.88709H96.8537V16.7158H95.8293V5.47762C95.8293 5.21391 95.8327 4.94344 95.8394 4.6662C95.8462 4.38897 95.853 4.11511 95.8597 3.84464C95.8732 3.5674 95.8868 3.30031 95.9003 3.04336H95.8394L90.3725 16.7158H89.5408Z" fill="white"/>
<path d="M104.722 5.69062V16.7158H103.697V5.69062H104.722ZM104.225 1.61323C104.482 1.61323 104.671 1.691 104.793 1.84652C104.914 1.99528 104.975 2.19813 104.975 2.45508C104.975 2.71203 104.914 2.91489 104.793 3.06365C104.671 3.21241 104.482 3.28679 104.225 3.28679C103.981 3.28679 103.799 3.21241 103.677 3.06365C103.555 2.91489 103.494 2.71203 103.494 2.45508C103.494 2.19813 103.555 1.99528 103.677 1.84652C103.799 1.691 103.981 1.61323 104.225 1.61323Z" fill="white"/>
<path d="M116.17 5.47762C117.407 5.47762 118.357 5.80219 119.02 6.45133C119.683 7.10046 120.014 8.11812 120.014 9.5043V16.7158H119V9.56515C119 8.46973 118.75 7.66508 118.249 7.15118C117.749 6.63728 117.022 6.38033 116.069 6.38033C114.858 6.38033 113.932 6.73532 113.289 7.44532C112.654 8.14855 112.336 9.21354 112.336 10.6403V16.7158H111.312V5.69062H112.143L112.295 7.69889H112.356C112.552 7.28641 112.819 6.91451 113.158 6.58318C113.502 6.24509 113.925 5.978 114.425 5.78191C114.926 5.57905 115.507 5.47762 116.17 5.47762Z" fill="white"/>
<path d="M130.489 16.9186C128.981 16.9186 127.831 16.4453 127.04 15.4987C126.256 14.5452 125.864 13.1591 125.864 11.3401C125.864 9.4333 126.279 7.9795 127.111 6.97875C127.943 5.978 129.103 5.47762 130.59 5.47762C131.226 5.47762 131.777 5.57567 132.243 5.77176C132.717 5.96786 133.112 6.23495 133.43 6.57304C133.755 6.90437 134.005 7.28303 134.181 7.70903H134.262C134.235 7.35065 134.214 6.96523 134.201 6.55275C134.187 6.14028 134.181 5.76162 134.181 5.41677V0.933671H135.205V16.7158H134.373L134.242 14.6974H134.181C133.998 15.1031 133.745 15.475 133.42 15.8131C133.102 16.1512 132.703 16.4217 132.223 16.6245C131.743 16.8206 131.165 16.9186 130.489 16.9186ZM130.6 16.0261C131.899 16.0261 132.822 15.6238 133.369 14.8191C133.917 14.0077 134.191 12.8514 134.191 11.3503V11.188C134.191 9.63277 133.917 8.44269 133.369 7.61774C132.822 6.78604 131.929 6.37019 130.692 6.37019C129.468 6.37019 128.531 6.79618 127.882 7.64817C127.24 8.50016 126.918 9.73758 126.918 11.3604C126.918 12.8886 127.219 14.0482 127.821 14.8394C128.43 15.6305 129.356 16.0261 130.6 16.0261Z" fill="white"/>
<path d="M12.922 1.88709L7.44495 16.7158H6.41039L0.933302 1.88709H2.02872L6.08582 12.8615C6.20077 13.1794 6.30896 13.4904 6.41039 13.7947C6.51181 14.0922 6.60648 14.3796 6.69438 14.6568C6.78229 14.934 6.86005 15.2011 6.92767 15.4581C6.99529 15.2011 7.06967 14.9408 7.15081 14.6771C7.23871 14.4066 7.33338 14.1226 7.4348 13.8251C7.53623 13.5208 7.6478 13.1963 7.76952 12.8514L11.8165 1.88709H12.922Z" stroke="white" stroke-width="1.85425" stroke-linejoin="round" mask="url(#path-1-outside-1_0_63)"/>
<path d="M18.6803 5.69062V16.7158H17.6559V5.69062H18.6803ZM18.1833 1.61323C18.4402 1.61323 18.6296 1.691 18.7513 1.84652C18.873 1.99528 18.9338 2.19813 18.9338 2.45508C18.9338 2.71203 18.873 2.91489 18.7513 3.06365C18.6296 3.21241 18.4402 3.28679 18.1833 3.28679C17.9399 3.28679 17.7573 3.21241 17.6356 3.06365C17.5139 2.91489 17.453 2.71203 17.453 2.45508C17.453 2.19813 17.5139 1.99528 17.6356 1.84652C17.7573 1.691 17.9399 1.61323 18.1833 1.61323Z" stroke="white" stroke-width="1.85425" stroke-linejoin="round" mask="url(#path-1-outside-1_0_63)"/>
<path d="M29.662 5.49791C29.9528 5.49791 30.2266 5.51481 30.4836 5.54862C30.7405 5.58243 30.9806 5.62976 31.2037 5.69062L31.0414 6.6339C30.8183 6.57304 30.5918 6.52909 30.3619 6.50204C30.132 6.46823 29.8852 6.45133 29.6215 6.45133C29.1008 6.45133 28.6342 6.54937 28.2218 6.74547C27.8161 6.94156 27.4712 7.22218 27.1872 7.58732C26.9032 7.95245 26.6868 8.39197 26.5381 8.90587C26.3893 9.41977 26.3149 9.99453 26.3149 10.6301V16.7158H25.2804V5.69062H26.1628L26.2642 7.76988H26.3251C26.4941 7.34389 26.7308 6.96185 27.0351 6.62375C27.3461 6.2789 27.7214 6.00505 28.1609 5.80219C28.6004 5.59934 29.1008 5.49791 29.662 5.49791Z" stroke="white" stroke-width="1.85425" stroke-linejoin="round" mask="url(#path-1-outside-1_0_63)"/>
<path d="M39.2542 16.0362C39.572 16.0362 39.8662 16.0126 40.1367 15.9652C40.4139 15.9179 40.6573 15.857 40.8669 15.7827V16.6346C40.6506 16.709 40.397 16.7733 40.1062 16.8274C39.8155 16.8882 39.4943 16.9186 39.1427 16.9186C38.5206 16.9186 38.0033 16.8037 37.5908 16.5738C37.1784 16.3371 36.8673 15.9821 36.6577 15.5088C36.4481 15.0287 36.3433 14.4201 36.3433 13.6831V6.54261H34.7001V5.93405L36.3331 5.61962L36.6881 3.02308H37.3677V5.69062H40.8061V6.54261H37.3677V13.6223C37.3677 14.4134 37.5131 15.0152 37.8038 15.4277C38.1013 15.8334 38.5848 16.0362 39.2542 16.0362Z" stroke="white" stroke-width="1.85425" stroke-linejoin="round" mask="url(#path-1-outside-1_0_63)"/>
<path d="M54.709 5.69062V16.7158H53.8772L53.7251 14.7278H53.6642C53.4749 15.1335 53.2078 15.502 52.863 15.8334C52.5181 16.1647 52.0955 16.4284 51.5951 16.6245C51.0948 16.8206 50.5132 16.9186 49.8506 16.9186C49.0053 16.9186 48.2953 16.7733 47.7206 16.4825C47.1526 16.185 46.7232 15.7387 46.4325 15.1437C46.1417 14.5486 45.9963 13.8048 45.9963 12.9123V5.69062H47.0207V12.8108C47.0207 13.913 47.2676 14.7244 47.7612 15.2451C48.2615 15.7658 48.9918 16.0261 49.952 16.0261C50.7634 16.0261 51.443 15.8706 51.9907 15.5595C52.5452 15.2485 52.9644 14.7785 53.2484 14.1497C53.5392 13.5141 53.6845 12.7229 53.6845 11.7763V5.69062H54.709Z" stroke="white" stroke-width="1.85425" stroke-linejoin="round" mask="url(#path-1-outside-1_0_63)"/>
<path d="M65.1734 5.49791C66.3838 5.49791 67.2899 5.80219 67.8917 6.41076C68.4935 7.01932 68.7944 7.98964 68.7944 9.32173V16.7158H68.0033L67.8207 14.7887H67.7598C67.5232 15.2011 67.2358 15.5697 66.8977 15.8942C66.5596 16.212 66.1437 16.4622 65.6501 16.6448C65.1633 16.8274 64.5682 16.9186 63.865 16.9186C63.155 16.9186 62.5465 16.8003 62.0393 16.5636C61.5389 16.327 61.1501 15.9821 60.8729 15.5291C60.6024 15.076 60.4672 14.525 60.4672 13.8758C60.4672 12.7804 60.9202 11.9487 61.8263 11.3807C62.7324 10.8059 64.0341 10.4814 65.7313 10.407L67.7801 10.3056V9.5043C67.7801 8.37507 67.557 7.57041 67.1107 7.09032C66.6644 6.61023 66.0051 6.37019 65.1329 6.37019C64.5649 6.37019 64.0172 6.44456 63.4897 6.59333C62.9691 6.73532 62.4383 6.94156 61.8973 7.21203L61.5728 6.36004C62.1002 6.10985 62.6648 5.90362 63.2666 5.74133C63.8752 5.57905 64.5108 5.49791 65.1734 5.49791ZM67.77 11.1069L65.8428 11.188C64.4432 11.2556 63.3782 11.5058 62.6479 11.9386C61.9176 12.3713 61.5525 13.0204 61.5525 13.886C61.5525 14.5824 61.7688 15.1166 62.2016 15.4885C62.6411 15.8604 63.2497 16.0464 64.0273 16.0464C65.2377 16.0464 66.1607 15.7015 66.7963 15.0118C67.4386 14.3221 67.7632 13.3822 67.77 12.1921V11.1069Z" stroke="white" stroke-width="1.85425" stroke-linejoin="round" mask="url(#path-1-outside-1_0_63)"/>
<path d="M76.287 46.9276H75.2525V0.933671H76.287V46.9276Z" stroke="white" stroke-width="1.85425" stroke-linejoin="round" mask="url(#path-1-outside-1_0_63)"/>
<path d="M89.5408 16.7158L84.0941 3.02308H84.0434C84.0569 3.27326 84.0671 3.53698 84.0738 3.81421C84.0874 4.08469 84.0975 4.36868 84.1043 4.6662C84.111 4.96372 84.1144 5.27477 84.1144 5.59934V16.7158H83.1204V1.88709H84.7027L89.9566 15.093H90.0175L95.312 1.88709H96.8537V16.7158H95.8293V5.47762C95.8293 5.21391 95.8327 4.94344 95.8394 4.6662C95.8462 4.38897 95.853 4.11511 95.8597 3.84464C95.8732 3.5674 95.8868 3.30031 95.9003 3.04336H95.8394L90.3725 16.7158H89.5408Z" stroke="white" stroke-width="1.85425" stroke-linejoin="round" mask="url(#path-1-outside-1_0_63)"/>
<path d="M104.722 5.69062V16.7158H103.697V5.69062H104.722ZM104.225 1.61323C104.482 1.61323 104.671 1.691 104.793 1.84652C104.914 1.99528 104.975 2.19813 104.975 2.45508C104.975 2.71203 104.914 2.91489 104.793 3.06365C104.671 3.21241 104.482 3.28679 104.225 3.28679C103.981 3.28679 103.799 3.21241 103.677 3.06365C103.555 2.91489 103.494 2.71203 103.494 2.45508C103.494 2.19813 103.555 1.99528 103.677 1.84652C103.799 1.691 103.981 1.61323 104.225 1.61323Z" stroke="white" stroke-width="1.85425" stroke-linejoin="round" mask="url(#path-1-outside-1_0_63)"/>
<path d="M116.17 5.47762C117.407 5.47762 118.357 5.80219 119.02 6.45133C119.683 7.10046 120.014 8.11812 120.014 9.5043V16.7158H119V9.56515C119 8.46973 118.75 7.66508 118.249 7.15118C117.749 6.63728 117.022 6.38033 116.069 6.38033C114.858 6.38033 113.932 6.73532 113.289 7.44532C112.654 8.14855 112.336 9.21354 112.336 10.6403V16.7158H111.312V5.69062H112.143L112.295 7.69889H112.356C112.552 7.28641 112.819 6.91451 113.158 6.58318C113.502 6.24509 113.925 5.978 114.425 5.78191C114.926 5.57905 115.507 5.47762 116.17 5.47762Z" stroke="white" stroke-width="1.85425" stroke-linejoin="round" mask="url(#path-1-outside-1_0_63)"/>
<path d="M130.489 16.9186C128.981 16.9186 127.831 16.4453 127.04 15.4987C126.256 14.5452 125.864 13.1591 125.864 11.3401C125.864 9.4333 126.279 7.9795 127.111 6.97875C127.943 5.978 129.103 5.47762 130.59 5.47762C131.226 5.47762 131.777 5.57567 132.243 5.77176C132.717 5.96786 133.112 6.23495 133.43 6.57304C133.755 6.90437 134.005 7.28303 134.181 7.70903H134.262C134.235 7.35065 134.214 6.96523 134.201 6.55275C134.187 6.14028 134.181 5.76162 134.181 5.41677V0.933671H135.205V16.7158H134.373L134.242 14.6974H134.181C133.998 15.1031 133.745 15.475 133.42 15.8131C133.102 16.1512 132.703 16.4217 132.223 16.6245C131.743 16.8206 131.165 16.9186 130.489 16.9186ZM130.6 16.0261C131.899 16.0261 132.822 15.6238 133.369 14.8191C133.917 14.0077 134.191 12.8514 134.191 11.3503V11.188C134.191 9.63277 133.917 8.44269 133.369 7.61774C132.822 6.78604 131.929 6.37019 130.692 6.37019C129.468 6.37019 128.531 6.79618 127.882 7.64817C127.24 8.50016 126.918 9.73758 126.918 11.3604C126.918 12.8886 127.219 14.0482 127.821 14.8394C128.43 15.6305 129.356 16.0261 130.6 16.0261Z" stroke="white" stroke-width="1.85425" stroke-linejoin="round" mask="url(#path-1-outside-1_0_63)"/>
<path d="M5.14433 37.2708V40.1582C5.14433 41.4738 5.46976 42.3947 6.12063 42.9209C6.78534 43.461 7.9209 43.731 9.52729 43.731C10.926 43.731 11.9369 43.551 12.5601 43.191C13.3217 42.7617 13.7579 41.9931 13.8687 40.8852H12.5808L11.5007 39.5558V38.7664H17.2338V40.8852H16.4445C16.3337 42.6163 15.6413 43.918 14.3673 44.7904C13.3702 45.4967 12.1031 45.8498 10.5659 45.8498H8.50945C6.76457 45.8498 5.37282 45.3998 4.3342 44.4996C3.1848 43.5579 2.6101 42.187 2.6101 40.3867V38.2887L3.89798 37.2708H5.14433ZM7.88628 47.0546C8.26018 47.0546 8.57869 47.1862 8.8418 47.4493C9.10492 47.7124 9.23648 48.0309 9.23648 48.4048C9.23648 48.7787 9.10492 49.0972 8.8418 49.3603C8.57869 49.6235 8.26018 49.755 7.88628 49.755C7.51237 49.755 7.19386 49.6235 6.93075 49.3603C6.66763 49.0972 6.53607 48.7787 6.53607 48.4048C6.53607 48.0309 6.66763 47.7124 6.93075 47.4493C7.19386 47.1862 7.51237 47.0546 7.88628 47.0546ZM11.0437 47.0546C11.4176 47.0546 11.7361 47.1862 11.9992 47.4493C12.2623 47.7124 12.3939 48.0309 12.3939 48.4048C12.3939 48.7787 12.2623 49.0972 11.9992 49.3603C11.7361 49.6235 11.4176 49.755 11.0437 49.755C10.6836 49.755 10.372 49.6235 10.1089 49.3603C9.8458 49.0972 9.71424 48.7787 9.71424 48.4048C9.71424 48.0309 9.8458 47.7124 10.1089 47.4493C10.372 47.1862 10.6836 47.0546 11.0437 47.0546Z" fill="white"/>
<path d="M19.2789 38.7664V40.8852H15.4361V38.7664H19.2789Z" fill="white"/>
<path d="M30.8852 26.76C31.2591 26.76 31.5776 26.8916 31.8407 27.1547C32.1038 27.4178 32.2354 27.7363 32.2354 28.1102C32.2354 28.4703 32.1038 28.7819 31.8407 29.045C31.5776 29.3081 31.2591 29.4397 30.8852 29.4397C30.5251 29.4397 30.2135 29.3081 29.9504 29.045C29.6873 28.7819 29.5557 28.4703 29.5557 28.1102C29.5557 27.7363 29.6873 27.4178 29.9504 27.1547C30.2135 26.8916 30.5251 26.76 30.8852 26.76ZM25.3597 34.8197C27.2154 32.3132 29.5073 31.0599 32.2354 31.0599C33.8972 31.0599 35.2681 31.5792 36.3483 32.6178C37.3315 33.5734 37.8231 34.7643 37.8231 36.1907V38.6003C37.8231 39.2234 37.6085 39.7497 37.1792 40.179C36.7499 40.6498 36.2167 40.8852 35.5797 40.8852H19.1072V38.7664H22.8463V31.3299H25.3597V34.8197ZM35.2889 36.3153C35.2889 35.4567 35.0119 34.7643 34.458 34.2381C33.7933 33.5734 32.9209 33.241 31.8407 33.241C30.7744 33.241 29.7358 33.5941 28.7248 34.3004C27.3677 35.2421 26.246 36.7308 25.3597 38.7664H34.7696C35.1158 38.7664 35.2889 38.5933 35.2889 38.2471V36.3153Z" fill="white"/>
<path d="M42.9362 26.0122V40.3659L41.6483 41.4045H40.402V26.0122H42.9362Z" fill="white"/>
<path d="M50.1739 31.3299V38.7664H51.2333V40.8852H50.1531C50.0424 42.547 49.3846 43.8211 48.1798 44.7073C47.1827 45.4413 45.9571 45.8083 44.5031 45.8083C44.2538 45.8083 43.9838 45.8014 43.6929 45.7875L42.6751 44.5204V43.6272C43.1182 43.6964 43.5475 43.731 43.963 43.731C46.4141 43.731 47.6397 42.5401 47.6397 40.1582V31.3299H50.1739Z" fill="white"/>
<path d="M53.1129 26.76C53.4868 26.76 53.8053 26.8916 54.0684 27.1547C54.3315 27.4178 54.4631 27.7363 54.4631 28.1102C54.4631 28.4703 54.3315 28.7819 54.0684 29.045C53.8053 29.3081 53.4868 29.4397 53.1129 29.4397C52.739 29.4397 52.4205 29.3081 52.1574 29.045C51.8942 28.7819 51.7627 28.4703 51.7627 28.1102C51.7627 27.7363 51.8942 27.4178 52.1574 27.1547C52.4205 26.8916 52.739 26.76 53.1129 26.76ZM56.2703 26.76C56.6442 26.76 56.9627 26.8916 57.2258 27.1547C57.4889 27.4178 57.6205 27.7363 57.6205 28.1102C57.6205 28.4703 57.4889 28.7819 57.2258 29.045C56.9627 29.3081 56.6442 29.4397 56.2703 29.4397C55.9102 29.4397 55.5986 29.3081 55.3355 29.045C55.0724 28.7819 54.9409 28.4703 54.9409 28.1102C54.9409 27.7363 55.0724 27.4178 55.3355 27.1547C55.5986 26.8916 55.9102 26.76 56.2703 26.76ZM57.3504 31.3299V38.7664H58.4098V40.8852H57.6828L56.9142 40.0336H56.8727C56.4018 40.6013 55.8133 40.8852 55.107 40.8852H51.098V38.7664H54.2346C54.4285 38.7664 54.5669 38.7111 54.65 38.6003C54.7747 38.4895 54.837 38.351 54.837 38.1848V31.3299H57.3504Z" fill="white"/>
<path d="M66.3184 26.76C66.6923 26.76 67.0108 26.8916 67.274 27.1547C67.5371 27.4178 67.6686 27.7363 67.6686 28.1102C67.6686 28.4703 67.5371 28.7819 67.274 29.045C67.0108 29.3081 66.6923 29.4397 66.3184 29.4397C65.9584 29.4397 65.6468 29.3081 65.3837 29.045C65.1205 28.7819 64.989 28.4703 64.989 28.1102C64.989 27.7363 65.1205 27.4178 65.3837 27.1547C65.6468 26.8916 65.9584 26.76 66.3184 26.76ZM62.434 38.7664C62.1155 38.3648 61.8662 37.8871 61.6862 37.3332C61.5339 36.8069 61.4577 36.2807 61.4577 35.7545C61.4577 34.5358 61.8108 33.518 62.5171 32.7009C63.4172 31.6208 64.6843 31.0807 66.3184 31.0807C67.4817 31.0807 68.451 31.3923 69.2266 32.0154C70.0713 32.7355 70.4937 33.7049 70.4937 34.9236V38.6003C70.4937 39.168 70.3067 39.6735 69.9328 40.1166C69.4897 40.629 68.9288 40.8852 68.2502 40.8852H58.2587V38.7664H62.434ZM67.9594 34.9236C67.9594 34.3558 67.7656 33.8988 67.3778 33.5526C67.0731 33.3172 66.72 33.1995 66.3184 33.1995C65.4183 33.1995 64.7674 33.5526 64.3658 34.2588C64.1027 34.702 63.9711 35.2628 63.9711 35.9414C63.9711 36.8692 64.262 37.5963 64.8436 38.1225C65.3144 38.5518 65.9307 38.7664 66.6923 38.7664H67.4401C67.7863 38.7664 67.9594 38.5933 67.9594 38.2471V34.9236Z" fill="white"/>
<path d="M94.5649 26.0122V38.7664H95.6035V40.8852H94.5442C94.4472 42.4085 93.8794 43.6203 92.8408 44.5204C91.7745 45.4067 90.3828 45.8498 88.6656 45.8498H86.6091C84.7396 45.8498 83.2717 45.3374 82.2054 44.3127C81.2083 43.3433 80.7098 42.0346 80.7098 40.3867V36.6684L81.9977 35.6298H83.244V40.1582C83.244 41.4738 83.5764 42.3947 84.2411 42.9209C84.9058 43.461 86.0413 43.731 87.6477 43.731C89.2126 43.731 90.3135 43.4887 90.9505 43.004C91.6706 42.4501 92.0307 41.5015 92.0307 40.1582V26.0122H94.5649Z" fill="white"/>
<path d="M99.3052 38.7664V40.8852H95.4624V38.7664H99.3052Z" fill="white"/>
<path d="M102.997 38.7664V40.8852H99.1543V38.7664H102.997Z" fill="white"/>
<path d="M106.689 38.7664V40.8852H102.846V38.7664H106.689Z" fill="white"/>
<path d="M112.791 26.76C113.165 26.76 113.483 26.8916 113.746 27.1547C114.009 27.4178 114.141 27.7363 114.141 28.1102C114.141 28.4703 114.009 28.7819 113.746 29.045C113.483 29.3081 113.165 29.4397 112.791 29.4397C112.431 29.4397 112.119 29.3081 111.856 29.045C111.593 28.7819 111.461 28.4703 111.461 28.1102C111.461 27.7363 111.593 27.4178 111.856 27.1547C112.119 26.8916 112.431 26.76 112.791 26.76ZM115.948 26.76C116.322 26.76 116.641 26.8916 116.904 27.1547C117.167 27.4178 117.298 27.7363 117.298 28.1102C117.298 28.4703 117.167 28.7819 116.904 29.045C116.641 29.3081 116.322 29.4397 115.948 29.4397C115.574 29.4397 115.256 29.315 114.993 29.0658C114.743 28.8026 114.619 28.4841 114.619 28.1102C114.619 27.7363 114.743 27.4178 114.993 27.1547C115.256 26.8916 115.574 26.76 115.948 26.76ZM110.672 38.7664C110.049 37.9356 109.737 36.9316 109.737 35.7545C109.737 34.6881 110.007 33.7672 110.547 32.9917C111.42 31.7177 112.68 31.0807 114.328 31.0807C115.574 31.0807 116.62 31.4684 117.465 32.2439C118.448 33.1441 118.939 34.3142 118.939 35.7545C118.939 36.89 118.628 37.894 118.005 38.7664H119.438V40.8852H116.322C115.422 40.8852 114.771 40.7952 114.369 40.6152H114.266C113.878 40.7952 113.227 40.8852 112.313 40.8852H106.538V38.7664H110.672ZM114.328 38.7457C114.951 38.6764 115.45 38.3925 115.823 37.894C116.211 37.3816 116.405 36.7308 116.405 35.9414C116.405 35.1105 116.218 34.4458 115.844 33.9473C115.47 33.4487 114.965 33.1995 114.328 33.1995C113.705 33.1995 113.199 33.4487 112.811 33.9473C112.438 34.4458 112.251 35.1105 112.251 35.9414C112.251 36.7308 112.438 37.3816 112.811 37.894C113.199 38.3925 113.705 38.6764 114.328 38.7457Z" fill="white"/>
<path d="M123.141 38.7664V40.8852H119.298V38.7664H123.141Z" fill="white"/>
<path d="M126.833 38.7664V40.8852H122.99V38.7664H126.833Z" fill="white"/>
<path d="M130.857 38.7664C130.608 38.4756 130.386 38.081 130.192 37.5824C129.985 37.0008 129.881 36.3915 129.881 35.7545C129.881 34.1758 130.442 32.964 131.563 32.1193C132.477 31.4269 133.627 31.0807 135.011 31.0807C135.745 31.0807 136.507 31.1984 137.296 31.4338V33.428C136.507 33.2479 135.829 33.1579 135.261 33.1579C133.364 33.1579 132.415 34.1065 132.415 36.0037C132.415 36.613 132.56 37.1531 132.851 37.624C133.336 38.3856 134.042 38.7664 134.97 38.7664H139V39.5973L137.961 40.8852H126.682V38.7664H130.857Z" fill="white"/>
<path d="M5.14433 37.2708V40.1582C5.14433 41.4738 5.46976 42.3947 6.12063 42.9209C6.78534 43.461 7.9209 43.731 9.52729 43.731C10.926 43.731 11.9369 43.551 12.5601 43.191C13.3217 42.7617 13.7579 41.9931 13.8687 40.8852H12.5808L11.5007 39.5558V38.7664H17.2338V40.8852H16.4445C16.3337 42.6163 15.6413 43.918 14.3673 44.7904C13.3702 45.4967 12.1031 45.8498 10.5659 45.8498H8.50945C6.76457 45.8498 5.37282 45.3998 4.3342 44.4996C3.1848 43.5579 2.6101 42.187 2.6101 40.3867V38.2887L3.89798 37.2708H5.14433ZM7.88628 47.0546C8.26018 47.0546 8.57869 47.1862 8.8418 47.4493C9.10492 47.7124 9.23648 48.0309 9.23648 48.4048C9.23648 48.7787 9.10492 49.0972 8.8418 49.3603C8.57869 49.6235 8.26018 49.755 7.88628 49.755C7.51237 49.755 7.19386 49.6235 6.93075 49.3603C6.66763 49.0972 6.53607 48.7787 6.53607 48.4048C6.53607 48.0309 6.66763 47.7124 6.93075 47.4493C7.19386 47.1862 7.51237 47.0546 7.88628 47.0546ZM11.0437 47.0546C11.4176 47.0546 11.7361 47.1862 11.9992 47.4493C12.2623 47.7124 12.3939 48.0309 12.3939 48.4048C12.3939 48.7787 12.2623 49.0972 11.9992 49.3603C11.7361 49.6235 11.4176 49.755 11.0437 49.755C10.6836 49.755 10.372 49.6235 10.1089 49.3603C9.8458 49.0972 9.71424 48.7787 9.71424 48.4048C9.71424 48.0309 9.8458 47.7124 10.1089 47.4493C10.372 47.1862 10.6836 47.0546 11.0437 47.0546Z" stroke="white"/>
<path d="M19.2789 38.7664V40.8852H15.4361V38.7664H19.2789Z" stroke="white"/>
<path d="M30.8852 26.76C31.2591 26.76 31.5776 26.8916 31.8407 27.1547C32.1038 27.4178 32.2354 27.7363 32.2354 28.1102C32.2354 28.4703 32.1038 28.7819 31.8407 29.045C31.5776 29.3081 31.2591 29.4397 30.8852 29.4397C30.5251 29.4397 30.2135 29.3081 29.9504 29.045C29.6873 28.7819 29.5557 28.4703 29.5557 28.1102C29.5557 27.7363 29.6873 27.4178 29.9504 27.1547C30.2135 26.8916 30.5251 26.76 30.8852 26.76ZM25.3597 34.8197C27.2154 32.3132 29.5073 31.0599 32.2354 31.0599C33.8972 31.0599 35.2681 31.5792 36.3483 32.6178C37.3315 33.5734 37.8231 34.7643 37.8231 36.1907V38.6003C37.8231 39.2234 37.6085 39.7497 37.1792 40.179C36.7499 40.6498 36.2167 40.8852 35.5797 40.8852H19.1072V38.7664H22.8463V31.3299H25.3597V34.8197ZM35.2889 36.3153C35.2889 35.4567 35.0119 34.7643 34.458 34.2381C33.7933 33.5734 32.9209 33.241 31.8407 33.241C30.7744 33.241 29.7358 33.5941 28.7248 34.3004C27.3677 35.2421 26.246 36.7308 25.3597 38.7664H34.7696C35.1158 38.7664 35.2889 38.5933 35.2889 38.2471V36.3153Z" stroke="white"/>
<path d="M42.9362 26.0122V40.3659L41.6483 41.4045H40.402V26.0122H42.9362Z" stroke="white"/>
<path d="M50.1739 31.3299V38.7664H51.2333V40.8852H50.1531C50.0424 42.547 49.3846 43.8211 48.1798 44.7073C47.1827 45.4413 45.9571 45.8083 44.5031 45.8083C44.2538 45.8083 43.9838 45.8014 43.6929 45.7875L42.6751 44.5204V43.6272C43.1182 43.6964 43.5475 43.731 43.963 43.731C46.4141 43.731 47.6397 42.5401 47.6397 40.1582V31.3299H50.1739Z" stroke="white"/>
<path d="M53.1129 26.76C53.4868 26.76 53.8053 26.8916 54.0684 27.1547C54.3315 27.4178 54.4631 27.7363 54.4631 28.1102C54.4631 28.4703 54.3315 28.7819 54.0684 29.045C53.8053 29.3081 53.4868 29.4397 53.1129 29.4397C52.739 29.4397 52.4205 29.3081 52.1574 29.045C51.8942 28.7819 51.7627 28.4703 51.7627 28.1102C51.7627 27.7363 51.8942 27.4178 52.1574 27.1547C52.4205 26.8916 52.739 26.76 53.1129 26.76ZM56.2703 26.76C56.6442 26.76 56.9627 26.8916 57.2258 27.1547C57.4889 27.4178 57.6205 27.7363 57.6205 28.1102C57.6205 28.4703 57.4889 28.7819 57.2258 29.045C56.9627 29.3081 56.6442 29.4397 56.2703 29.4397C55.9102 29.4397 55.5986 29.3081 55.3355 29.045C55.0724 28.7819 54.9409 28.4703 54.9409 28.1102C54.9409 27.7363 55.0724 27.4178 55.3355 27.1547C55.5986 26.8916 55.9102 26.76 56.2703 26.76ZM57.3504 31.3299V38.7664H58.4098V40.8852H57.6828L56.9142 40.0336H56.8727C56.4018 40.6013 55.8133 40.8852 55.107 40.8852H51.098V38.7664H54.2346C54.4285 38.7664 54.5669 38.7111 54.65 38.6003C54.7747 38.4895 54.837 38.351 54.837 38.1848V31.3299H57.3504Z" stroke="white"/>
<path d="M66.3184 26.76C66.6923 26.76 67.0108 26.8916 67.274 27.1547C67.5371 27.4178 67.6686 27.7363 67.6686 28.1102C67.6686 28.4703 67.5371 28.7819 67.274 29.045C67.0108 29.3081 66.6923 29.4397 66.3184 29.4397C65.9584 29.4397 65.6468 29.3081 65.3837 29.045C65.1205 28.7819 64.989 28.4703 64.989 28.1102C64.989 27.7363 65.1205 27.4178 65.3837 27.1547C65.6468 26.8916 65.9584 26.76 66.3184 26.76ZM62.434 38.7664C62.1155 38.3648 61.8662 37.8871 61.6862 37.3332C61.5339 36.8069 61.4577 36.2807 61.4577 35.7545C61.4577 34.5358 61.8108 33.518 62.5171 32.7009C63.4172 31.6208 64.6843 31.0807 66.3184 31.0807C67.4817 31.0807 68.451 31.3923 69.2266 32.0154C70.0713 32.7355 70.4937 33.7049 70.4937 34.9236V38.6003C70.4937 39.168 70.3067 39.6735 69.9328 40.1166C69.4897 40.629 68.9288 40.8852 68.2502 40.8852H58.2587V38.7664H62.434ZM67.9594 34.9236C67.9594 34.3558 67.7656 33.8988 67.3778 33.5526C67.0731 33.3172 66.72 33.1995 66.3184 33.1995C65.4183 33.1995 64.7674 33.5526 64.3658 34.2588C64.1027 34.702 63.9711 35.2628 63.9711 35.9414C63.9711 36.8692 64.262 37.5963 64.8436 38.1225C65.3144 38.5518 65.9307 38.7664 66.6923 38.7664H67.4401C67.7863 38.7664 67.9594 38.5933 67.9594 38.2471V34.9236Z" stroke="white"/>
<path d="M94.5649 26.0122V38.7664H95.6035V40.8852H94.5442C94.4472 42.4085 93.8794 43.6203 92.8408 44.5204C91.7745 45.4067 90.3828 45.8498 88.6656 45.8498H86.6091C84.7396 45.8498 83.2717 45.3374 82.2054 44.3127C81.2083 43.3433 80.7098 42.0346 80.7098 40.3867V36.6684L81.9977 35.6298H83.244V40.1582C83.244 41.4738 83.5764 42.3947 84.2411 42.9209C84.9058 43.461 86.0413 43.731 87.6477 43.731C89.2126 43.731 90.3135 43.4887 90.9505 43.004C91.6706 42.4501 92.0307 41.5015 92.0307 40.1582V26.0122H94.5649Z" stroke="white"/>
<path d="M99.3052 38.7664V40.8852H95.4624V38.7664H99.3052Z" stroke="white"/>
<path d="M102.997 38.7664V40.8852H99.1543V38.7664H102.997Z" stroke="white"/>
<path d="M106.689 38.7664V40.8852H102.846V38.7664H106.689Z" stroke="white"/>
<path d="M112.791 26.76C113.165 26.76 113.483 26.8916 113.746 27.1547C114.009 27.4178 114.141 27.7363 114.141 28.1102C114.141 28.4703 114.009 28.7819 113.746 29.045C113.483 29.3081 113.165 29.4397 112.791 29.4397C112.431 29.4397 112.119 29.3081 111.856 29.045C111.593 28.7819 111.461 28.4703 111.461 28.1102C111.461 27.7363 111.593 27.4178 111.856 27.1547C112.119 26.8916 112.431 26.76 112.791 26.76ZM115.948 26.76C116.322 26.76 116.641 26.8916 116.904 27.1547C117.167 27.4178 117.298 27.7363 117.298 28.1102C117.298 28.4703 117.167 28.7819 116.904 29.045C116.641 29.3081 116.322 29.4397 115.948 29.4397C115.574 29.4397 115.256 29.315 114.993 29.0658C114.743 28.8026 114.619 28.4841 114.619 28.1102C114.619 27.7363 114.743 27.4178 114.993 27.1547C115.256 26.8916 115.574 26.76 115.948 26.76ZM110.672 38.7664C110.049 37.9356 109.737 36.9316 109.737 35.7545C109.737 34.6881 110.007 33.7672 110.547 32.9917C111.42 31.7177 112.68 31.0807 114.328 31.0807C115.574 31.0807 116.62 31.4684 117.465 32.2439C118.448 33.1441 118.939 34.3142 118.939 35.7545C118.939 36.89 118.628 37.894 118.005 38.7664H119.438V40.8852H116.322C115.422 40.8852 114.771 40.7952 114.369 40.6152H114.266C113.878 40.7952 113.227 40.8852 112.313 40.8852H106.538V38.7664H110.672ZM114.328 38.7457C114.951 38.6764 115.45 38.3925 115.823 37.894C116.211 37.3816 116.405 36.7308 116.405 35.9414C116.405 35.1105 116.218 34.4458 115.844 33.9473C115.47 33.4487 114.965 33.1995 114.328 33.1995C113.705 33.1995 113.199 33.4487 112.811 33.9473C112.438 34.4458 112.251 35.1105 112.251 35.9414C112.251 36.7308 112.438 37.3816 112.811 37.894C113.199 38.3925 113.705 38.6764 114.328 38.7457Z" stroke="white"/>
<path d="M123.141 38.7664V40.8852H119.298V38.7664H123.141Z" stroke="white"/>
<path d="M126.833 38.7664V40.8852H122.99V38.7664H126.833Z" stroke="white"/>
<path d="M130.857 38.7664C130.608 38.4756 130.386 38.081 130.192 37.5824C129.985 37.0008 129.881 36.3915 129.881 35.7545C129.881 34.1758 130.442 32.964 131.563 32.1193C132.477 31.4269 133.627 31.0807 135.011 31.0807C135.745 31.0807 136.507 31.1984 137.296 31.4338V33.428C136.507 33.2479 135.829 33.1579 135.261 33.1579C133.364 33.1579 132.415 34.1065 132.415 36.0037C132.415 36.613 132.56 37.1531 132.851 37.624C133.336 38.3856 134.042 38.7664 134.97 38.7664H139V39.5973L137.961 40.8852H126.682V38.7664H130.857Z" stroke="white"/>
</svg>
