<svg width="116" height="22" viewBox="0 0 116 22" fill="none" xmlns="http://www.w3.org/2000/svg">
<path d="M17.9142 0V21.0489H13.5975L5.22112 8.90058H5.08751V21.0489H0V0H4.37834L12.6623 12.1278H12.837V0H17.9142Z" fill="white"/>
<path d="M25.5635 21.3162C24.5562 21.3162 23.6621 21.1483 22.881 20.8126C22.1067 20.47 21.4935 19.9561 21.0412 19.2709C20.5959 18.5788 20.3732 17.7121 20.3732 16.6706C20.3732 15.7936 20.5273 15.0536 20.8357 14.4506C21.144 13.8476 21.5688 13.3577 22.1101 12.9809C22.6514 12.604 23.2749 12.3197 23.9807 12.1278C24.6864 11.9291 25.4401 11.7955 26.2418 11.727C27.1394 11.6448 27.8623 11.5591 28.4104 11.47C28.9586 11.3741 29.356 11.2405 29.6026 11.0692C29.8562 10.891 29.9829 10.641 29.9829 10.3189V10.2675C29.9829 9.73993 29.8014 9.33225 29.4382 9.04447C29.0751 8.75669 28.5851 8.6128 27.9685 8.6128C27.3038 8.6128 26.7694 8.75669 26.3651 9.04447C25.9609 9.33225 25.7039 9.72966 25.5943 10.2367L20.959 10.0722C21.0961 9.11299 21.4489 8.2565 22.0176 7.5028C22.5932 6.74224 23.3811 6.14613 24.3815 5.71446C25.3887 5.27594 26.5981 5.05668 28.0096 5.05668C29.0168 5.05668 29.9452 5.17659 30.7949 5.4164C31.6445 5.64937 32.3845 5.99196 33.0149 6.44418C33.6453 6.88956 34.1317 7.43771 34.4743 8.08863C34.8238 8.73956 34.9985 9.48299 34.9985 10.3189V21.0489H30.2707V18.8495H30.1474C29.8664 19.3839 29.5067 19.8362 29.0682 20.2062C28.6365 20.5762 28.1261 20.8537 27.5368 21.0387C26.9544 21.2237 26.2966 21.3162 25.5635 21.3162ZM27.1154 18.0273C27.6567 18.0273 28.1432 17.9176 28.5749 17.6984C29.0134 17.4791 29.3628 17.1776 29.6232 16.7939C29.8836 16.4034 30.0138 15.9512 30.0138 15.4373V13.9367C29.8699 14.0121 29.6951 14.0806 29.4896 14.1423C29.2909 14.2039 29.0716 14.2622 28.8318 14.317C28.592 14.3718 28.3453 14.4198 28.0918 14.4609C27.8383 14.502 27.595 14.5397 27.3621 14.5739C26.8893 14.6493 26.485 14.7658 26.1493 14.9234C25.8204 15.081 25.5669 15.2865 25.3887 15.54C25.2175 15.7867 25.1318 16.0813 25.1318 16.4239C25.1318 16.9447 25.3168 17.3421 25.6868 17.6162C26.0637 17.8902 26.5399 18.0273 27.1154 18.0273Z" fill="white"/>
<path d="M43.0974 12.0456V21.0489H38.0716V5.26224H42.8507V8.16058H43.0255C43.3749 7.19446 43.971 6.43733 44.8138 5.88918C45.6566 5.33418 46.6604 5.05668 47.8252 5.05668C48.9352 5.05668 49.8979 5.30677 50.7133 5.80696C51.5355 6.30029 52.1727 6.99233 52.6249 7.88308C53.084 8.76697 53.3101 9.8016 53.3033 10.987V21.0489H48.2774V11.9736C48.2843 11.0966 48.0616 10.4114 47.6094 9.91808C47.164 9.42475 46.5439 9.17808 45.7491 9.17808C45.2215 9.17808 44.7556 9.29456 44.3513 9.52752C43.9539 9.75364 43.6456 10.0791 43.4263 10.5039C43.2139 10.9287 43.1043 11.4426 43.0974 12.0456Z" fill="white"/>
<path d="M63.7841 21.347C62.1259 21.347 60.7007 21.0078 59.5085 20.3295C58.3231 19.6443 57.4084 18.6919 56.7643 17.4723C56.1271 16.2458 55.8085 14.824 55.8085 13.207C55.8085 11.5831 56.1271 10.1613 56.7643 8.94169C57.4084 7.71521 58.3231 6.7628 59.5085 6.08446C60.7007 5.39927 62.1259 5.05668 63.7841 5.05668C65.4422 5.05668 66.864 5.39927 68.0493 6.08446C69.2416 6.7628 70.1563 7.71521 70.7935 8.94169C71.4376 10.1613 71.7596 11.5831 71.7596 13.207C71.7596 14.824 71.4376 16.2458 70.7935 17.4723C70.1563 18.6919 69.2416 19.6443 68.0493 20.3295C66.864 21.0078 65.4422 21.347 63.7841 21.347ZM63.8149 17.5545C64.4179 17.5545 64.9283 17.3695 65.3463 16.9995C65.7642 16.6295 66.0829 16.1156 66.3021 15.4578C66.5282 14.8 66.6413 14.0395 66.6413 13.1761C66.6413 12.2991 66.5282 11.5317 66.3021 10.8739C66.0829 10.2161 65.7642 9.70225 65.3463 9.33225C64.9283 8.96225 64.4179 8.77725 63.8149 8.77725C63.1914 8.77725 62.6638 8.96225 62.2321 9.33225C61.8073 9.70225 61.4818 10.2161 61.2557 10.8739C61.0365 11.5317 60.9268 12.2991 60.9268 13.1761C60.9268 14.0395 61.0365 14.8 61.2557 15.4578C61.4818 16.1156 61.8073 16.6295 62.2321 16.9995C62.6638 17.3695 63.1914 17.5545 63.8149 17.5545Z" fill="white"/>
<path d="M74.3342 21.0489V5.26224H79.1134V8.16058H79.2881C79.617 7.20132 80.172 6.44418 80.9531 5.88918C81.7342 5.33418 82.6661 5.05668 83.7487 5.05668C84.845 5.05668 85.7837 5.33761 86.5648 5.89946C87.3459 6.46131 87.8427 7.21502 88.0551 8.16058H88.2195C88.5142 7.22187 89.0897 6.47159 89.9462 5.90974C90.8027 5.34103 91.8133 5.05668 92.9782 5.05668C94.4719 5.05668 95.6846 5.53631 96.6165 6.49557C97.5484 7.44798 98.0143 8.75669 98.0143 10.4217V21.0489H92.9884V11.5728C92.9884 10.7848 92.7863 10.1853 92.382 9.77419C91.9778 9.35623 91.4536 9.14725 90.8095 9.14725C90.1175 9.14725 89.5728 9.37336 89.1754 9.82558C88.7848 10.271 88.5895 10.8705 88.5895 11.6242V21.0489H83.759V11.5214C83.759 10.7883 83.5603 10.2093 83.1629 9.78447C82.7654 9.35966 82.2413 9.14725 81.5903 9.14725C81.1518 9.14725 80.7647 9.25345 80.429 9.46586C80.0932 9.67142 79.8294 9.96605 79.6376 10.3498C79.4526 10.7335 79.3601 11.1857 79.3601 11.7064V21.0489H74.3342Z" fill="white"/>
<path d="M108.508 21.347C106.857 21.347 105.431 21.0215 104.232 20.3706C103.04 19.7128 102.122 18.7776 101.478 17.5648C100.841 16.3451 100.522 14.896 100.522 13.2173C100.522 11.5865 100.844 10.1613 101.488 8.94169C102.132 7.71521 103.04 6.7628 104.212 6.08446C105.383 5.39927 106.764 5.05668 108.354 5.05668C109.477 5.05668 110.505 5.2314 111.437 5.58085C112.369 5.93029 113.174 6.44761 113.852 7.1328C114.531 7.81798 115.058 8.66419 115.435 9.67142C115.812 10.6718 116 11.8195 116 13.1145V14.3684H102.28V11.4495H111.324C111.317 10.915 111.19 10.4388 110.944 10.0209C110.697 9.6029 110.358 9.27743 109.926 9.04447C109.501 8.80465 109.012 8.68475 108.457 8.68475C107.895 8.68475 107.391 8.81151 106.946 9.06503C106.5 9.31169 106.147 9.65086 105.887 10.0825C105.627 10.5073 105.49 10.9904 105.476 11.5317V14.502C105.476 15.1461 105.603 15.7113 105.856 16.1978C106.11 16.6775 106.469 17.0509 106.935 17.3181C107.401 17.5853 107.956 17.7189 108.6 17.7189C109.046 17.7189 109.45 17.6573 109.813 17.5339C110.176 17.4106 110.488 17.229 110.748 16.9892C111.009 16.7494 111.204 16.4548 111.334 16.1053L115.949 16.2389C115.757 17.2736 115.336 18.1746 114.685 18.942C114.041 19.7026 113.195 20.2952 112.146 20.7201C111.098 21.138 109.885 21.347 108.508 21.347Z" fill="white"/>
</svg>
